<svg xmlns="http://www.w3.org/2000/svg"><metadata/><defs><font id="clan_pronarrow_news" horiz-adv-x="1208"><font-face ascent="1612" descent="-436" units-per-em="2048"/><glyph horiz-adv-x="0"/><glyph horiz-adv-x="0"/><glyph horiz-adv-x="682"/><glyph horiz-adv-x="561"/><glyph horiz-adv-x="561"/><glyph horiz-adv-x="561"/><glyph horiz-adv-x="561"/><glyph d="M168 88q0 113 117 113q116 0 116 -113q0 -111 -116 -111q-59 0 -88 26.5t-29 84.5zM182 1536h197l-31 -1133h-137z" horiz-adv-x="563" unicode="!"/><glyph d="M111 1579h182l-37 -483h-119zM446 1579h183l-37 -483h-119z" horiz-adv-x="727" unicode="&quot;"/><glyph d="M119 453v149h217l45 340h-260v148h276l54 446h141l-53 -446h211l55 446h139l-53 -446h199v-148h-216l-43 -340h259v-149h-275l-53 -453h-141l55 453h-213l-55 -453h-142l53 453h-200zM477 602h215l43 340h-211z" unicode="#"/><glyph d="M154 76l24 182q152 -93 320 -113l55 566q-51 21 -84.5 36.5t-80 40.5t-76 47.5t-62.5 56.5t-52 70t-31.5 84t-12.5 103q0 195 124.5 301t356.5 109l12 131l113 -9l-15 -129q160 -16 250 -63l-14 -172q-128 48 -252 59l-51 -499q55 -22 95.5 -41.5t88.5 -48.5t81.5 -63 t63 -78.5t44 -102t14.5 -125.5q0 -227 -117 -334.5t-360 -110.5l-15 -145l-104 10l12 139q-202 19 -327 99zM319 1157q0 -37 14 -68.5t35 -54.5t56.5 -45t68 -37t80.5 -34l43 464q-150 -3 -223.5 -63.5t-73.5 -161.5zM604 139q314 3 314 254q0 52 -20 95t-59 76t-80.5 56.5 t-101.5 49.5z" unicode="$"/><glyph d="M88 1208q0 189 64.5 272t207.5 83q137 0 203 -81.5t66 -273.5q0 -184 -67.5 -269t-203.5 -85q-139 0 -204.5 84.5t-65.5 269.5zM215 1210q0 -134 34 -182.5t111 -48.5q76 0 109 48.5t33 182.5q0 133 -33.5 182.5t-108.5 49.5q-77 0 -111 -49t-34 -183zM223 121l754 1374 l108 -82l-753 -1376zM707 338q0 189 63.5 272.5t208.5 83.5q136 0 202 -82.5t66 -273.5q0 -186 -67 -270t-203 -84q-139 0 -204.5 84t-65.5 270zM834 338q0 -90 16.5 -141t46.5 -69.5t82 -18.5q76 0 109.5 48.5t33.5 180.5t-33.5 180.5t-109.5 48.5q-52 0 -82 -18.5 t-46.5 -69.5t-16.5 -141z" horiz-adv-x="1335" unicode="%"/><glyph d="M88 377q0 101 40 193t94.5 154.5t135.5 131.5q-129 218 -129 363q0 156 87.5 249t265.5 93q153 0 240 -74t87 -201q0 -53 -19.5 -105t-45.5 -92t-77.5 -91.5t-88.5 -83.5t-105 -87q130 -185 332 -374q90 159 119 323h156q-10 -90 -50 -206t-104 -226q138 -116 264 -192 l-67 -170q-137 81 -297 219q-198 -226 -447 -226q-102 0 -179 32t-122.5 88.5t-67.5 127.5t-22 154zM272 393q0 -111 64 -174t172 -63q161 0 297 153q-207 201 -356 412q-177 -166 -177 -328zM397 1219q0 -103 90 -258q61 48 95.5 77.5t74 71t57.5 81t19 81.5 q0 68 -41 103.5t-114 35.5q-81 0 -131 -50.5t-50 -141.5z" horiz-adv-x="1310" unicode="&amp;"/><glyph d="M102 1579h183l-37 -483h-119z" horiz-adv-x="389" unicode="'"/><glyph d="M180 684q0 546 293 950l148 -10q-269 -424 -269 -940q0 -509 266 -938l-145 -10q-139 180 -216 426.5t-77 521.5z" horiz-adv-x="630" unicode="("/><glyph d="M10 -254q266 429 266 938q0 516 -266 940l148 10q293 -408 293 -950q0 -273 -77.5 -520t-215.5 -428z" horiz-adv-x="628" unicode=")"/><glyph d="M47 1360l33 96l213 -57l12 221h94l9 -221l210 57l33 -96l-209 -74l131 -186l-71 -60l-150 179l-151 -179l-76 56l133 190z" horiz-adv-x="698" unicode="*"/><glyph d="M133 612v172h338v351h162v-351h348v-172h-348v-348h-162v348h-338z" horiz-adv-x="1114" unicode="+"/><glyph d="M119 92q0 56 28.5 89.5t88.5 33.5t89 -34t29 -95q0 -55 -45.5 -173t-95.5 -200l-66 17l52 250q-33 11 -56.5 42t-23.5 70z" horiz-adv-x="473" unicode=","/><glyph d="M129 633v139h498v-139h-498z" horiz-adv-x="755" unicode="-"/><glyph d="M119 98q0 119 121 119q118 0 118 -119q0 -121 -118 -121q-62 0 -91.5 28.5t-29.5 92.5z" horiz-adv-x="477" unicode="."/><glyph d="M18 -256l639 1886h156l-643 -1886h-152z" horiz-adv-x="817" unicode="/"/><glyph d="M109 768q0 224 27.5 373.5t88.5 242t152.5 131.5t226.5 39q179 0 285 -72.5t158.5 -245t52.5 -468.5q0 -290 -53 -463t-160.5 -249t-284.5 -76q-178 0 -284.5 76.5t-157.5 248.5t-51 463zM293 770q0 -154 12.5 -261.5t35.5 -177t62 -108.5t86 -54t115 -15q67 0 114 15 t86 54.5t62 109.5t35 177t12 260q0 152 -12.5 258.5t-35 174.5t-62 106t-86 52.5t-113.5 14.5q-68 0 -115 -14.5t-86 -53.5t-62 -107t-35.5 -174t-12.5 -257z" unicode="0"/><glyph d="M262 1255l402 285h112v-1393h240v-147h-680v147h246v971l4 166l-4 2l-138 -94l-161 -105z" unicode="1"/><glyph d="M160 0v131q37 40 103.5 110l104.5 110t97 104.5t93.5 105t82 99t75 100t58.5 93.5t47.5 94t27.5 87.5t11 87.5q0 114 -71.5 182t-221.5 68q-187 0 -354 -143l-51 162q83 73 195.5 117t240.5 44q221 0 339 -107.5t118 -301.5q0 -111 -46 -226.5t-140.5 -239.5t-198.5 -234 t-260 -257l2 -6h653l-6 -180h-899z" unicode="2"/><glyph d="M150 94l36 160q168 -102 369 -102q169 0 253.5 84t84.5 231q0 143 -101.5 207.5t-342.5 64.5v148q222 0 317.5 66t95.5 200q0 113 -76.5 168t-216.5 55q-205 0 -362 -141l-49 156q77 72 187.5 116.5t236.5 44.5q216 0 336 -99t120 -286q0 -132 -62.5 -218.5 t-174.5 -127.5v-4q137 -36 206.5 -123t69.5 -235q0 -223 -128.5 -349t-387.5 -126q-240 0 -411 110z" unicode="3"/><glyph d="M113 467l604 1069h231v-1028h174l-6 -170h-168v-338h-176v338h-643zM319 508h459l8 684l7 166l-5 2z" unicode="4"/><glyph d="M174 94l35 164q159 -104 346 -104q167 0 244.5 85.5t77.5 270.5q0 154 -75.5 222.5t-236.5 68.5q-176 0 -317 -74l-70 76l58 733h757l6 -178h-616l-31 -436q119 45 266 45q445 0 445 -441q0 -271 -120.5 -406.5t-369.5 -135.5q-237 0 -399 110z" unicode="5"/><glyph d="M121 719q0 428 146 630.5t435 202.5q169 0 304 -55l-17 -172q-128 49 -264 49q-206 0 -308.5 -124t-115.5 -398l6 -4q68 62 158 96.5t186 34.5q220 0 326 -109.5t106 -339.5q0 -546 -469 -546q-124 0 -212.5 36t-153 120t-96 227.5t-31.5 351.5zM311 676 q2 -200 34.5 -314t95.5 -161t171 -47q143 0 215 93t72 288q0 151 -69 219.5t-216 68.5q-82 0 -170 -40.5t-133 -106.5z" unicode="6"/><glyph d="M127 1346l10 188h959v-164l-584 -1370h-213l610 1346h-782z" unicode="7"/><glyph d="M119 422q0 127 67.5 227.5t186.5 161.5v6q-203 106 -203 348q0 387 436 387q222 0 329 -97t107 -290q0 -116 -55.5 -207.5t-159.5 -150.5v-4q59 -25 103.5 -55t82.5 -74.5t58.5 -108t20.5 -143.5q0 -440 -486 -440q-251 0 -369 108t-118 332zM299 420q0 -147 72.5 -213 t240.5 -66q141 0 219 65t78 202q0 40 -10 74t-25 60t-44.5 51t-55.5 41.5t-71.5 37t-79 33.5t-91.5 34q-110 -60 -171.5 -136t-61.5 -183zM344 1157q0 -38 10 -70.5t24 -56.5t41.5 -47t50 -37t62.5 -31t65.5 -26t72.5 -25q105 56 154.5 124.5t49.5 162.5q0 123 -65 181.5 t-203 58.5q-133 0 -197.5 -57.5t-64.5 -176.5z" unicode="8"/><glyph d="M115 1075q0 232 117 354.5t350 122.5q499 0 499 -708q0 -236 -35 -401.5t-106.5 -266.5t-173.5 -146.5t-244 -45.5q-183 0 -319 65l26 164q129 -57 275 -57q134 0 217.5 56.5t128 184t51.5 340.5l-4 2q-128 -116 -334 -116q-223 0 -335.5 118.5t-112.5 333.5zM297 1083 q0 -301 297 -301q201 0 301 136q-2 169 -41.5 273.5t-106.5 147.5t-167 43q-141 0 -212 -73t-71 -226z" unicode="9"/><glyph d="M119 98q0 119 121 119q118 0 118 -119q0 -121 -118 -121q-62 0 -91.5 28.5t-29.5 92.5zM119 1034q0 119 121 119q118 0 118 -119q0 -121 -118 -121q-62 0 -91.5 28.5t-29.5 92.5z" horiz-adv-x="477" unicode=":"/><glyph d="M123 92q0 56 28.5 89.5t88.5 33.5t89 -34t29 -95q0 -55 -45.5 -173t-95.5 -200l-65 17l51 250q-33 11 -56.5 42t-23.5 70zM125 1034q0 119 121 119q119 0 119 -119q0 -58 -30 -89.5t-89 -31.5q-62 0 -91.5 28.5t-29.5 92.5z" horiz-adv-x="483" unicode=";"/><glyph d="M166 645v94l782 443v-195l-413 -219l-148 -72v-6l561 -284v-187z" horiz-adv-x="1114" unicode="&lt;"/><glyph d="M145 436v150h824v-150h-824zM145 791v149h824v-149h-824z" horiz-adv-x="1114" unicode="="/><glyph d="M166 219v187l416 212l149 72v6l-149 72l-416 219v195l782 -443v-94z" horiz-adv-x="1114" unicode="&gt;"/><glyph d="M63 1401q69 72 176 116t232 44q194 0 293.5 -92t99.5 -263q0 -164 -84.5 -286t-249.5 -226l-10 -288h-139l-12 352q162 116 236.5 208.5t74.5 211.5q0 104 -61.5 155t-172.5 51q-177 0 -317 -133zM336 88q0 113 117 113q116 0 116 -113q0 -111 -116 -111 q-60 0 -88.5 26.5t-28.5 84.5z" horiz-adv-x="944" unicode="?"/><glyph d="M96 692q0 148 31 283t94.5 250.5t154.5 200.5t217.5 133.5t276.5 48.5q207 0 361.5 -98.5t235.5 -274t81 -404.5q0 -149 -29 -263.5t-80.5 -183.5t-117.5 -103.5t-143 -34.5q-172 0 -213 153l-7 2q-43 -72 -110 -113.5t-152 -41.5q-115 0 -182.5 86t-67.5 254 q0 149 54 280.5t149 211t207 79.5q118 0 166 -86h6l29 74l100 -8l-84 -533q-6 -38 -6 -69q0 -72 31 -115t98 -43q108 0 174 114.5t66 339.5q0 195 -63 342.5t-193 233.5t-312 86q-162 0 -289.5 -64t-207 -175t-121 -253.5t-41.5 -306.5q0 -135 24 -252.5t75.5 -217.5 t128 -171t187 -111t246.5 -40q196 0 332 56.5t215 135.5l47 -100q-222 -205 -594 -205q-188 0 -335 64.5t-243 183t-146 284.5t-50 371zM598 588q0 -99 36.5 -149t102.5 -50q72 0 127 66.5t68 171.5l51 321q-32 72 -121 72q-107 0 -185.5 -130.5t-78.5 -301.5z" horiz-adv-x="1642" unicode="@"/><glyph d="M35 0l500 1536h237l500 -1536h-217l-109 371h-596l-108 -371h-207zM401 545h496l-201 684l-41 162h-6l-45 -162z" horiz-adv-x="1308" unicode="A"/><glyph d="M178 0v1536h502q422 0 422 -381q0 -136 -54 -220t-149 -118v-4q258 -65 258 -377q0 -214 -110 -325t-349 -111h-520zM367 172h333q132 0 197.5 64t65.5 215q0 140 -66 203t-205 63h-325v-545zM367 874h315q120 0 175.5 60t55.5 186q0 131 -56 185.5t-183 54.5h-307v-486z" horiz-adv-x="1269" unicode="B"/><glyph d="M113 784q0 405 145.5 591t458.5 186q82 0 171.5 -19.5t147.5 -46.5l-22 -180q-121 59 -285 59q-111 0 -186.5 -28t-128 -96t-76 -182t-23.5 -284q0 -183 24 -304.5t77.5 -193t129.5 -101t189 -29.5q152 0 283 67l24 -168q-65 -36 -155 -59t-178 -23q-309 0 -452.5 192.5 t-143.5 618.5z" horiz-adv-x="1116" unicode="C"/><glyph d="M178 0v1536h467q216 0 347 -75t194 -242t63 -445q0 -282 -66 -453t-196 -246t-338 -75h-471zM373 184h274q107 0 177.5 24.5t123 89t76 181.5t23.5 297q0 173 -22 284.5t-73.5 175.5t-123.5 89t-183 25h-272v-1166z" horiz-adv-x="1361" unicode="D"/><glyph d="M178 0v1536h848l4 -184h-657v-467h563v-170h-563v-533h690l-6 -182h-879z" horiz-adv-x="1144" unicode="E"/><glyph d="M180 0v1536h846l4 -188h-655v-482h549l-2 -180h-547v-686h-195z" horiz-adv-x="1089" unicode="F"/><glyph d="M113 762q0 425 150 612t480 187q96 0 195 -19.5t170 -52.5l-21 -178q-157 67 -333 67q-95 0 -164 -18t-123 -59.5t-86.5 -112.5t-49 -175t-16.5 -249q0 -175 22.5 -290.5t74.5 -185.5t128 -99t191 -29q139 0 234 39v620h174v-762q-74 -39 -181.5 -61.5t-220.5 -22.5 q-330 0 -477 185.5t-147 603.5z" horiz-adv-x="1257" unicode="G"/><glyph d="M178 0v1536h195v-645h643v645h194v-1536h-194v705h-643v-705h-195z" horiz-adv-x="1388" unicode="H"/><glyph d="M203 0v1536h198v-1536h-198z" horiz-adv-x="602" unicode="I"/><glyph d="M66 49l16 176q91 -69 235 -69q314 0 314 333v1047h198v-1051q0 -261 -124.5 -386.5t-358.5 -125.5q-170 0 -280 76z" horiz-adv-x="1007" unicode="J"/><glyph d="M178 0v1536h195v-653h196l424 653h228l-473 -727l499 -809h-237l-443 713h-194v-713h-195z" horiz-adv-x="1296" unicode="K"/><glyph d="M178 0v1536h197v-1350h635l-6 -186h-826z" horiz-adv-x="1054" unicode="L"/><glyph d="M178 0v1536h223l387 -1083l54 -156h6l51 156l391 1083h221v-1536h-178v1014l4 166l-6 2l-53 -158l-369 -1024h-137l-366 1018l-54 158l-4 -2l2 -166v-1008h-172z" horiz-adv-x="1689" unicode="M"/><glyph d="M178 0v1536h178l609 -1024l84 -143l4 2l-4 164v1001h170v-1536h-142l-641 1057l-82 143l-4 -2l2 -166v-1032h-174z" horiz-adv-x="1398" unicode="N"/><glyph d="M113 768q0 291 58 463.5t182 251t333 78.5t332 -78.5t180 -250.5t57 -464q0 -295 -57 -467.5t-180 -250t-332 -77.5q-207 0 -331 78.5t-183 252t-59 464.5zM315 768q0 -147 13.5 -250.5t40 -173.5t72.5 -110.5t104 -57t141 -16.5q104 0 170.5 26.5t112.5 95t65 185.5 t19 301q0 185 -19 301.5t-65 185t-112.5 94t-172.5 25.5q-83 0 -141 -16.5t-103.5 -56.5t-71.5 -109.5t-39.5 -173t-13.5 -250.5z" horiz-adv-x="1368" unicode="O"/><glyph d="M178 0v1536h455q261 0 377 -110.5t116 -364.5q0 -243 -116 -357t-377 -114h-260v-590h-195zM373 756h260q156 0 224.5 66t68.5 241q0 166 -67.5 232.5t-225.5 66.5h-260v-606z" horiz-adv-x="1210" unicode="P"/><glyph d="M113 768q0 291 58 463.5t182 251t333 78.5t332 -78.5t180 -250.5t57 -464q0 -376 -94.5 -558t-312.5 -222l295 -234l-236 -63l-258 282q-193 7 -309.5 88.5t-171.5 253t-55 453.5zM315 768q0 -147 13.5 -250.5t40 -173.5t72.5 -110.5t104 -57t141 -16.5q104 0 170.5 26.5 t112.5 95t65 185.5t19 301q0 185 -19 301.5t-65 185t-112.5 94t-172.5 25.5q-83 0 -141 -16.5t-103.5 -56.5t-71.5 -109.5t-39.5 -173t-13.5 -250.5z" horiz-adv-x="1368" unicode="Q"/><glyph d="M178 0v1536h461q233 0 344 -104.5t111 -329.5q0 -357 -275 -408l367 -694h-230l-315 657h-268v-657h-195zM373 817h260q138 0 199 62.5t61 214.5q0 148 -59.5 208t-192.5 60h-268v-545z" horiz-adv-x="1224" unicode="R"/><glyph d="M92 84l31 178q176 -108 371 -108q146 0 220 68.5t74 197.5q0 56 -23.5 101t-63 75.5t-91 56t-108 48.5t-113 48.5t-108 60t-91 77.5t-63 107.5t-23.5 144.5q0 190 117 306t344 116q207 0 363 -78l-27 -174q-165 67 -323 67q-149 0 -218 -62.5t-69 -166.5q0 -54 23.5 -96 t63 -71t91 -53.5t108 -47t113 -48t108 -61t91 -79.5t63 -110.5t23.5 -148.5q0 -219 -124 -339t-353 -120q-228 0 -406 111z" horiz-adv-x="1050" unicode="S"/><glyph d="M31 1348l4 188h1009l5 -188h-412v-1348h-197v1348h-409z" horiz-adv-x="1079" unicode="T"/><glyph d="M154 518v1018h192v-1016q0 -187 81.5 -272.5t252.5 -85.5q170 0 250 86t80 272v1016h194v-1018q0 -279 -132.5 -412t-391.5 -133q-260 0 -393 133t-133 412z" horiz-adv-x="1357" unicode="U"/><glyph d="M41 1536h215l342 -1182l43 -159h6l41 159l346 1182h203l-485 -1536h-228z" horiz-adv-x="1275" unicode="V"/><glyph d="M90 1536h203l221 -1180l29 -163h6l31 161l249 1182h213l250 -1180l33 -161h6l27 163l221 1178h195l-330 -1536h-238l-241 1178l-29 163h-6l-31 -163l-240 -1178h-239z" horiz-adv-x="1863" unicode="W"/><glyph d="M70 0l426 797l-412 739h231l250 -477l74 -148h6l72 148l248 477h223l-408 -735l434 -801h-223l-276 535l-72 149h-6l-72 -149l-268 -535h-227z" horiz-adv-x="1284" unicode="X"/><glyph d="M41 1536h221l297 -678l64 -151h6l61 151l291 678h215l-475 -1018v-518h-199v518z" horiz-adv-x="1234" unicode="Y"/><glyph d="M86 0v135l637 1073l88 138l-4 4h-701l7 186h923v-152l-628 -1056l-86 -135l2 -7h714l-6 -186h-946z" horiz-adv-x="1134" unicode="Z"/><glyph d="M180 -258v1888h428v-139h-264v-1612h264v-137h-428z" horiz-adv-x="618" unicode="["/><glyph d="M18 1630h146l555 -1886h-148z" horiz-adv-x="712" unicode="\"/><glyph d="M10 -123h264v1614h-264v139h428v-1888h-428v135z" horiz-adv-x="618" unicode="]"/><glyph d="M121 977l422 674h125l417 -674h-151l-330 522l-330 -522h-153z" unicode="^"/><glyph d="M47 -92h725v-119h-725v119z" horiz-adv-x="811" unicode="_"/><glyph d="M201 1649h217l127 -287h-142z" horiz-adv-x="761" unicode="`"/><glyph d="M102 373q0 178 103.5 274t298.5 96q135 0 248 -45v131q0 142 -59.5 199t-196.5 57q-168 0 -310 -71l-16 155q156 78 356 78q219 0 311.5 -101.5t92.5 -342.5v-803h-137l-17 145l-6 2q-50 -77 -134.5 -120t-189.5 -43q-161 0 -252.5 96t-91.5 293zM274 375 q0 -238 222 -238q101 0 178.5 62t77.5 141v225q-24 16 -82.5 29.5t-132.5 13.5q-263 0 -263 -233z" horiz-adv-x="1069" unicode="a"/><glyph d="M166 0v1624l178 10v-352l-2 -164l4 -2q117 129 311 129q79 0 142 -20t115.5 -65.5t87.5 -117.5t54 -179t19 -247q0 -173 -29 -297t-87 -198.5t-137 -109t-185 -34.5q-101 0 -184.5 38t-133.5 106l-6 -2l-28 -119h-119zM344 281q35 -64 103.5 -106t162.5 -42 q68 0 116.5 20.5t87 72.5t58 148t19.5 238q0 141 -18.5 234.5t-57 143t-87 68.5t-120.5 19q-86 0 -154 -36.5t-110 -102.5v-657z" horiz-adv-x="1167" unicode="b"/><glyph d="M92 623q0 318 114.5 468t362.5 150q152 0 269 -57l-13 -164q-104 51 -219 51q-179 0 -253 -101t-74 -347q0 -261 79 -372.5t244 -111.5q128 0 229 66l15 -152q-112 -80 -281 -80q-240 0 -356.5 155t-116.5 495z" horiz-adv-x="923" unicode="c"/><glyph d="M92 614q0 321 103 476t321 155q191 0 307 -131l4 2l-4 164v342l181 10v-1632h-138l-22 121l-6 2q-105 -148 -322 -148q-222 0 -323 151.5t-101 487.5zM279 608q0 -183 27 -284.5t87.5 -146t169.5 -44.5q104 0 168 42.5t92 103.5v661q-36 62 -103.5 97.5t-154.5 35.5 q-158 0 -222 -103.5t-64 -361.5z" horiz-adv-x="1163" unicode="d"/><glyph d="M92 645q0 598 457 598q208 0 323 -136t115 -425q0 -54 -6 -94h-702q4 -169 42.5 -266.5t111.5 -138t196 -40.5q154 0 299 74l20 -156q-146 -84 -340 -84q-274 0 -395 157t-121 511zM274 717h545q-3 366 -268 366q-139 0 -204 -87t-73 -279z" horiz-adv-x="1075" unicode="e"/><glyph d="M59 1081v144h162v61q0 159 91.5 251.5t275.5 92.5q94 0 164 -24l-13 -127q-61 14 -121 14q-217 0 -217 -211v-57h283v-144h-283v-1081h-180v1081h-162z" horiz-adv-x="747" unicode="f"/><glyph d="M109 2q0 66 29 127.5t83 106.5q-100 56 -100 167q0 58 37 107.5t108 81.5q-137 83 -137 289q0 178 94.5 270t300.5 92q171 0 271 -74l190 80l41 -92l-139 -102q33 -78 33 -174q0 -181 -93 -269t-301 -88q-84 0 -151 17q-84 -29 -84 -92q0 -33 24.5 -55.5t73.5 -26.5 l264 -27q194 -21 275.5 -91.5t81.5 -201.5q0 -177 -111 -269.5t-360 -92.5q-218 0 -324 84t-106 233zM266 27q0 -197 269 -197q90 0 151.5 13.5t95.5 39.5t48 59t14 78q0 70 -47.5 106.5t-173.5 49.5l-263 29q-46 -36 -70 -83.5t-24 -94.5zM307 877q0 -123 56.5 -170.5 t160.5 -47.5q123 0 172 51t49 167q0 122 -51 171.5t-168 49.5q-118 0 -168.5 -53t-50.5 -168z" horiz-adv-x="1064" unicode="g"/><glyph d="M166 0v1620l178 12v-350l-2 -164l4 -2q117 129 309 129q178 0 273.5 -105t95.5 -302v-838h-180v838q0 237 -244 237q-84 0 -153.5 -38t-102.5 -97v-940h-178z" horiz-adv-x="1163" unicode="h"/><glyph d="M176 1528q0 102 117 102t117 -102q0 -101 -117 -101q-60 0 -88.5 23.5t-28.5 77.5zM201 0v1217l182 12v-1229h-182z" horiz-adv-x="583" unicode="i"/><glyph d="M-25 -291l13 135q40 -16 78 -16q135 0 135 156v1235l180 10v-1249q0 -295 -272 -295q-79 0 -134 24zM172 1532q0 102 117 102t117 -102q0 -52 -28.5 -77t-88.5 -25t-88.5 24t-28.5 78z" horiz-adv-x="581" unicode="j"/><glyph d="M166 0v1622l178 10v-895h166l324 488h206l-370 -559l387 -666h-211l-336 582h-166v-582h-178z" horiz-adv-x="1091" unicode="k"/><glyph d="M188 0v1622l183 10v-1632h-183z" horiz-adv-x="559" unicode="l"/><glyph d="M156 0v1219l129 10l30 -123h7q47 64 123 100.5t161 36.5q222 0 297 -178h4q43 88 124.5 133t187.5 45q164 0 261 -101.5t97 -299.5v-842h-180v840q0 118 -59 175.5t-167 57.5q-93 0 -154 -56.5t-61 -160.5v-856h-180v856q0 112 -58 164.5t-155 52.5q-69 0 -132 -36 t-95 -95v-942h-180z" horiz-adv-x="1714" unicode="m"/><glyph d="M156 0v1221l129 10l28 -123h6q55 64 140.5 100.5t179.5 36.5q177 0 276 -103.5t99 -305.5v-836h-178v836q0 239 -246 239q-75 0 -146.5 -36t-107.5 -97v-942h-180z" horiz-adv-x="1153" unicode="n"/><glyph d="M92 608q0 232 52.5 372.5t156 201.5t272.5 61q253 0 364.5 -144.5t111.5 -490.5q0 -234 -50.5 -373.5t-153.5 -200.5t-272 -61q-170 0 -273.5 61t-155.5 200.5t-52 373.5zM279 608q0 -184 30 -287.5t92 -146.5t172 -43q107 0 168.5 43.5t91 147t29.5 286.5t-29.5 286.5 t-91 147t-168.5 43.5q-109 0 -171.5 -43.5t-92.5 -147t-30 -286.5z" horiz-adv-x="1140" unicode="o"/><glyph d="M156 -297v1516l127 8l36 -119h7q53 64 136.5 99.5t182.5 35.5q105 0 179.5 -30.5t130 -101.5t83 -194.5t27.5 -302.5q0 -637 -430 -637q-192 0 -295 127l-4 -2l2 -165v-234h-182zM338 285q34 -64 99.5 -106t154.5 -42q69 0 118.5 21t89.5 72.5t60.5 148t20.5 237.5 q0 136 -17.5 226.5t-55 140.5t-86.5 70t-120 20q-178 0 -264 -137v-651z" horiz-adv-x="1159" unicode="p"/><glyph d="M92 610q0 330 108.5 481.5t331.5 151.5q103 0 186.5 -37.5t135.5 -109.5h6l25 127l116 -2l-2 -1518l-180 -2v229l4 166l-4 2q-113 -116 -297 -116q-101 0 -178 34t-134.5 106.5t-87.5 195t-30 292.5zM279 610q0 -177 32 -280t92.5 -144t161.5 -41q106 0 176 47t80 107 v635q-27 58 -97.5 97.5t-158.5 39.5q-106 0 -166.5 -40t-90 -140t-29.5 -281z" horiz-adv-x="1159" unicode="q"/><glyph d="M156 0v1217l143 10l6 -92l6 -166h4q55 130 143 201t199 71q57 0 111 -14l-12 -191q-47 17 -109 17q-133 0 -222 -113.5t-89 -302.5v-637h-180z" horiz-adv-x="827" unicode="r"/><glyph d="M102 70l23 161q60 -46 144.5 -71t166.5 -25q116 0 173 54t57 149q0 45 -19.5 80.5t-52 59t-74.5 43t-89 37t-94 36.5t-89 46t-74.5 61.5t-52 86.5t-19.5 117q0 157 100.5 247.5t289.5 90.5q163 0 296 -65l-16 -158q-138 63 -280 63q-101 0 -159.5 -45.5t-58.5 -122.5 q0 -42 19 -75t51.5 -54.5t74 -39.5t87.5 -34.5t92.5 -35.5t88 -46.5t74 -63t51.5 -90t19 -122.5q0 -182 -96.5 -280.5t-296.5 -98.5q-202 0 -336 95z" horiz-adv-x="913" unicode="s"/><glyph d="M59 1079v146h158l33 299l143 16v-315h275v-146h-275v-774q0 -170 162 -170q56 0 90 17l12 -144q-61 -26 -153 -26q-145 0 -219 80.5t-74 238.5v778h-152z" horiz-adv-x="729" unicode="t"/><glyph d="M137 385v840h180v-838q0 -240 250 -240q252 0 252 240v838h178v-840q0 -200 -107 -304t-323 -104q-214 0 -322 105t-108 303z" horiz-adv-x="1136" unicode="u"/><glyph d="M63 1225h199l279 -901l47 -158h6l45 158l279 901h198l-418 -1225h-217z" horiz-adv-x="1177" unicode="v"/><glyph d="M96 1225h183l178 -903l28 -164h7l30 161l197 906h194l199 -910l33 -161h6l27 163l172 908h176l-264 -1225h-226l-184 877l-29 163h-6l-33 -163l-188 -877h-223z" horiz-adv-x="1622" unicode="w"/><glyph d="M74 0l356 621l-348 604h211l192 -367l74 -147h6l72 147l188 367h203l-340 -600l352 -625h-213l-200 385l-72 150h-6l-74 -150l-199 -385h-202z" horiz-adv-x="1114" unicode="x"/><glyph d="M63 1225h207l308 -889l51 -158h6l41 160l248 887h194l-397 -1237q-53 -166 -139 -236.5t-209 -70.5q-101 0 -172 36l18 138q64 -31 123 -31q68 0 114.5 33.5t80.5 117.5l6 23z" horiz-adv-x="1179" unicode="y"/><glyph d="M109 0v133l489 791l90 135l-4 4h-555l8 162h750v-135l-488 -791l-88 -133l2 -6h584l-6 -160h-782z" horiz-adv-x="997" unicode="z"/><glyph d="M180 651v80q66 10 105 54.5t39 109.5q0 80 -17.5 226t-17.5 227q0 142 84.5 216t279.5 74h45v-147h-55q-186 0 -186 -166q0 -77 13 -211t13 -217q0 -71 -29 -124t-83 -79v-6q54 -26 83 -79t29 -124q0 -83 -13 -217t-13 -211q0 -168 186 -168h55v-145h-45 q-195 0 -279.5 73.5t-84.5 215.5q0 82 17.5 228t17.5 226q0 65 -39 109.5t-105 54.5z" horiz-adv-x="706" unicode="{"/><glyph d="M199 -354v2021h141v-2021h-141z" horiz-adv-x="538" unicode="|"/><glyph d="M10 -111h53q189 0 189 168q0 77 -14.5 211t-14.5 217q0 150 115 203v6q-115 53 -115 203q0 83 14.5 217t14.5 211q0 166 -189 166h-53v147h45q193 0 278 -74t85 -216q0 -81 -17.5 -227t-17.5 -226q0 -64 39.5 -108.5t105.5 -55.5v-80q-66 -11 -105.5 -55.5t-39.5 -108.5 q0 -80 17.5 -226t17.5 -228q0 -142 -85 -215.5t-278 -73.5h-45v145z" horiz-adv-x="708" unicode="}"/><glyph d="M168 1292q27 291 244 291q49 0 104 -21.5t96.5 -48t91.5 -48t89 -21.5q57 0 89 29t48 86l108 2q-27 -289 -243 -289q-48 0 -103 21.5t-96.5 47t-91 47t-88.5 21.5q-108 0 -140 -115z" unicode="~"/><glyph d="M162 1264q0 108 117 108q61 0 89.5 -26t28.5 -82q0 -113 -118 -113q-117 0 -117 113zM186 -274l25 1230h143l23 -1230h-191z" horiz-adv-x="563" unicode="¡"/><glyph d="M201 623q0 297 99.5 447t313.5 169l17 254h141l-16 -258q108 -12 190 -51l-12 -164q-104 51 -219 51q-179 0 -253.5 -101.5t-74.5 -346.5q0 -261 79.5 -372.5t244.5 -111.5q128 0 229 66l14 -152q-96 -69 -235 -78l-12 -266h-142l13 273q-191 27 -284 181t-93 460z" unicode="¢"/><glyph d="M117 168q90 32 141 122t51 208q0 101 -16 192h-133l-8 152h104q-22 71 -31.5 107t-17.5 86.5t-8 101.5q0 89 27 162.5t84 132.5t156 91.5t232 32.5q191 0 340 -71l-26 -174q-126 65 -293 65t-247.5 -71t-80.5 -193q0 -56 10 -108t39 -162h475v-152h-442q16 -110 16 -184 q0 -118 -41 -205t-116 -135l4 -6q163 37 397 37q160 0 383 -25l-10 -184q-252 28 -455 28q-234 0 -524 -26z" unicode="£"/><glyph d="M193 422l122 125q-49 81 -49 178q0 99 56 184l-127 131l96 105l129 -133q85 53 182 53q100 0 180 -55l136 137l96 -107l-131 -133q53 -85 53 -182q0 -95 -49 -176l125 -127l-97 -107l-127 127q-82 -57 -186 -57q-106 0 -188 57l-125 -127zM387 727q0 -88 62 -147.5 t151 -59.5q91 0 153 59.5t62 147.5q0 87 -62.5 147t-152.5 60q-89 0 -151 -60.5t-62 -146.5z" unicode="¤"/><glyph d="M70 1536h215l264 -707l55 -155h6l54 155l264 707h209l-377 -850h201v-125h-250v-106h252v-123h-252v-332h-203v332h-252v123h252v106h-252v125h201z" unicode="¥"/><glyph d="M199 -334v899h141v-899h-141zM199 772v895h141v-895h-141z" horiz-adv-x="538" unicode="¦"/><glyph d="M113 725q0 92 46 172.5t138 130.5q-75 58 -115.5 120t-40.5 140q0 157 107.5 243.5t304.5 86.5q94 0 189.5 -23.5t160.5 -66.5l-18 -148q-148 84 -322 84q-115 0 -176 -44t-61 -124q0 -48 35.5 -90.5t92 -77.5t124.5 -71t136.5 -79t125 -93t92 -122.5t35.5 -158.5 q0 -93 -47 -174.5t-140 -130.5q158 -119 158 -260q0 -157 -107.5 -243.5t-304.5 -86.5q-93 0 -188 24t-160 66l17 148q145 -84 321 -84q115 0 175.5 44t60.5 124q0 38 -22 72.5t-59 62.5t-85 56t-101 57t-105.5 60.5t-100.5 70.5t-85 83.5t-59 104t-22 127.5zM287 741 q0 -31 10 -59.5t23.5 -52t42 -50.5t52 -46t67 -47t73 -46t84.5 -49q154 57 154 195q0 26 -6 50t-20 46.5t-27 41t-39 40t-43 36t-51.5 36t-52.5 33t-57.5 34.5t-56.5 33q-77 -28 -115 -79t-38 -116z" horiz-adv-x="1040" unicode="§"/><glyph d="M141 1534q0 46 22.5 71t65.5 25q90 0 90 -96t-90 -96q-44 0 -66 22.5t-22 73.5zM449 1534q0 96 88 96q90 0 90 -96t-90 -96q-45 0 -66.5 22.5t-21.5 73.5z" horiz-adv-x="761" unicode="¨"/><glyph d="M115 776q0 218 107.5 402.5t292.5 292.5t403 108q217 0 402 -108t292.5 -293t107.5 -402t-107.5 -402t-292.5 -293t-402 -108q-218 0 -403 108t-292.5 292.5t-107.5 402.5zM215 776q0 -186 92 -346t254.5 -256t356.5 -96q143 0 273.5 55.5t225 149t150 222.5t55.5 271 q0 140 -56 268t-150 221t-224.5 148t-273.5 55q-145 0 -276 -55t-224 -148.5t-148 -221t-55 -267.5zM410 776q0 105 36 199.5t101 166.5t165.5 114t221.5 42q92 0 173.5 -25.5t131.5 -64.5l-14 -141q-46 27 -114.5 43t-133.5 16q-179 0 -280 -97t-101 -253q0 -162 104 -260 t283 -98q137 0 266 74l19 -136q-63 -49 -152.5 -82.5t-181.5 -33.5q-231 0 -377.5 151t-146.5 385z" horiz-adv-x="1832" unicode="©"/><glyph d="M88 1047q0 128 74 201t205 73q97 0 159 -33v84q0 89 -39.5 124.5t-130.5 35.5q-106 0 -206 -47l-13 137q116 55 250 55q158 0 225.5 -76t67.5 -253v-576h-121l-12 94l-6 2q-70 -108 -211 -108q-113 0 -177.5 71.5t-64.5 215.5zM236 1049q0 -150 135 -150q62 0 108.5 38.5 t46.5 88.5v148q-39 26 -129 26q-161 0 -161 -151z" horiz-adv-x="784" unicode="ª"/><glyph d="M51 655v17l555 379v-152l-368 -235l368 -236v-152zM461 655v17l555 379v-152l-369 -235l369 -236v-152z" horiz-adv-x="1183" unicode="«"/><glyph d="M205 618v164h796v-460h-149v296h-647z" unicode="¬"/><glyph d="M129 633v139h498v-139h-498z" horiz-adv-x="755" unicode="­"/><glyph d="M84 1348q0 149 103.5 253.5t250.5 104.5q146 0 249.5 -104.5t103.5 -253.5q0 -146 -103.5 -250.5t-249.5 -104.5t-250 104.5t-104 250.5zM141 1350q0 -122 87.5 -209.5t211.5 -87.5q120 0 206.5 87.5t86.5 209.5t-86.5 208.5t-206.5 86.5q-125 0 -212 -86t-87 -209z M289 1153v408h168q153 0 153 -125q0 -39 -21 -70t-57 -43l91 -170h-91l-77 162h-84v-162h-82zM371 1370h94q31 0 48 17t17 43q0 31 -17 46t-56 15h-86v-121z" horiz-adv-x="874" unicode="®"/><glyph d="M117 1454v121h536v-121h-536z" horiz-adv-x="761" unicode="¯"/><glyph d="M90 1413q0 108 73 184t181 76q106 0 179 -75.5t73 -184.5q0 -106 -73.5 -182t-178.5 -76t-179.5 76t-74.5 182zM178 1413q0 -67 47.5 -113.5t118.5 -46.5q68 0 116 46.5t48 113.5q0 70 -48 117t-116 47q-72 0 -119 -47.5t-47 -116.5z" horiz-adv-x="686" unicode="°"/><glyph d="M184 154v145h834v-145h-834zM186 696v162h332v336h164v-336h340v-162h-340v-315h-164v315h-332z" unicode="±"/><glyph d="M76 1749q110 82 258 82q127 0 193.5 -60t66.5 -165q0 -59 -23.5 -116t-73.5 -116.5t-104.5 -111t-138.5 -121.5v-6h344l-4 -121h-514v92q198 196 257 266q112 132 112 219q0 54 -34.5 85.5t-107.5 31.5q-99 0 -194 -72z" horiz-adv-x="659" unicode="²"/><glyph d="M66 1065l30 111q89 -56 207 -56q81 0 121.5 37.5t40.5 104.5t-50.5 97t-178.5 30v100q119 0 167 30t48 93q0 102 -144 102q-118 0 -205 -72l-34 107q44 37 109.5 59.5t135.5 22.5q127 0 197 -53.5t70 -155.5q0 -130 -125 -178v-4q143 -39 143 -185q0 -121 -72.5 -186 t-222.5 -65q-138 0 -237 61z" horiz-adv-x="659" unicode="³"/><glyph d="M299 1362l135 287h217l-213 -287h-139z" horiz-adv-x="761" unicode="´"/><glyph d="M156 -309v1534h180v-840q0 -112 71.5 -176t186.5 -64q107 0 173.5 55.5t66.5 159.5v865h180v-1221l-127 -12l-27 106h-6q-37 -57 -104 -87.5t-152 -30.5q-93 0 -168.5 39.5t-116.5 119.5l-4 -2q10 -260 23 -430z" horiz-adv-x="1153" unicode="µ"/><glyph d="M74 1294q0 108 75 175t209 67h797l-6 -154h-145v-1685h-160v1685h-332v-1685h-160v1339q-127 3 -202.5 70t-75.5 188z" horiz-adv-x="1243" unicode="¶"/><glyph d="M147 709q0 118 121 118q119 0 119 -118q0 -58 -30 -89.5t-89 -31.5q-62 0 -91.5 28.5t-29.5 92.5z" horiz-adv-x="532" unicode="·"/><glyph d="M242 -387l120 397l123 2l-71 -399h-172z" horiz-adv-x="761" unicode="¸"/><glyph d="M78 1663l223 162h84v-811h-139v469l6 162l-6 2l-154 -99z" horiz-adv-x="505" unicode="¹"/><glyph d="M88 1219q0 250 79.5 354t256.5 104q180 0 258 -103.5t78 -354.5q0 -252 -79 -355.5t-257 -103.5q-177 0 -256.5 104t-79.5 355zM248 1219q0 -127 18.5 -196.5t55.5 -96.5t104 -27q98 0 137 67.5t39 252.5q0 126 -18.5 195t-55.5 95.5t-104 26.5q-66 0 -103 -26.5 t-55 -95.5t-18 -195z" horiz-adv-x="845" unicode="º"/><glyph d="M139 276v152l369 236l-369 235v152l555 -379v-17zM547 276v152l368 236l-368 235v152l555 -379v-17z" horiz-adv-x="1183" unicode="»"/><glyph d="M221 1378l223 160h84v-809h-139v469l6 162l-6 2l-153 -100zM276 0l951 1536h135l-950 -1536h-136zM887 252l346 555h170v-524h88l-4 -115h-84v-168h-129v168h-377zM1040 289l2 -6h234l4 231l6 166l-4 2l-78 -133l-78 -127z" horiz-adv-x="1632" unicode="¼"/><glyph d="M215 1378l223 160h84v-809h-139v469l6 162l-6 2l-154 -100zM252 0l950 1536h135l-950 -1536h-135zM977 735q110 82 258 82q127 0 193.5 -60.5t66.5 -166.5q0 -58 -23.5 -114.5t-73.5 -116.5t-103.5 -110.5t-137.5 -121.5v-6h342l-4 -121h-514v92l53 51q65 63 101.5 100 t83.5 90t71.5 89.5t42 78t17.5 77.5q0 116 -142 116q-102 0 -194 -73z" horiz-adv-x="1632" unicode="½"/><glyph d="M123 780l31 109q93 -55 206 -55q81 0 121.5 38t40.5 105t-50.5 97t-178.5 30v98q119 0 167 30t48 93q0 102 -143 102q-121 0 -205 -69l-35 104q45 37 111 60.5t135 23.5q127 0 196.5 -54.5t69.5 -156.5q0 -131 -123 -178v-4q141 -39 141 -182q0 -121 -72.5 -186.5 t-222.5 -65.5q-138 0 -237 61zM274 0l951 1536h135l-950 -1536h-136zM860 252l346 555h170v-524h88l-4 -115h-84v-168h-129v168h-377zM1014 289l2 -6h233l4 231l7 166l-5 2l-77 -133l-78 -127z" horiz-adv-x="1632" unicode="¾"/><glyph d="M80 150q0 164 84.5 286t249.5 226l10 288h139l12 -354q-162 -116 -235.5 -208t-73.5 -212q0 -104 60.5 -155.5t171.5 -51.5q181 0 317 133l68 -147q-70 -73 -177.5 -116.5t-232.5 -43.5q-195 0 -294 91.5t-99 263.5zM375 1266q0 110 117 110q61 0 89.5 -26t28.5 -84 q0 -111 -118 -111q-117 0 -117 111z" horiz-adv-x="901" unicode="¿"/><glyph d="M35 0l500 1536h237l500 -1536h-217l-109 371h-596l-108 -371h-207zM381 1866h227l152 -232h-150zM401 545h496l-201 684l-41 162h-6l-45 -162z" horiz-adv-x="1308" unicode="À"/><glyph d="M35 0l500 1536h237l500 -1536h-217l-109 371h-596l-108 -371h-207zM401 545h496l-201 684l-41 162h-6l-45 -162zM537 1632l147 232h244l-242 -232h-149z" horiz-adv-x="1308" unicode="Á"/><glyph d="M35 0l500 1536h237l500 -1536h-217l-109 371h-596l-108 -371h-207zM346 1632l209 232h193l217 -232h-172l-142 150l-137 -150h-168zM401 545h496l-201 684l-41 162h-6l-45 -162z" horiz-adv-x="1308" unicode="Â"/><glyph d="M35 0l500 1536h237l500 -1536h-217l-109 371h-596l-108 -371h-207zM369 1647q8 94 51.5 151t114.5 57q38 0 76 -18.5t63.5 -40.5t55 -40.5t52.5 -18.5q59 0 76 94l84 -2q-8 -95 -52.5 -153t-115.5 -58q-37 0 -74 19t-62 41.5t-54 41.5t-52 19q-27 0 -46 -25t-27 -69z M401 545h496l-201 684l-41 162h-6l-45 -162z" horiz-adv-x="1308" unicode="Ã"/><glyph d="M35 0l500 1536h237l500 -1536h-217l-109 371h-596l-108 -371h-207zM385 1733q0 92 88 92t88 -92q0 -91 -88 -91q-45 0 -66.5 21t-21.5 70zM401 545h496l-201 684l-41 162h-6l-45 -162zM743 1733q0 44 22.5 68t65.5 24q89 0 89 -92q0 -91 -89 -91q-44 0 -66 21.5t-22 69.5 z" horiz-adv-x="1308" unicode="Ä"/><glyph d="M35 0l489 1505q-67 37 -67 135q0 75 47.5 118.5t144.5 43.5q95 0 145 -43.5t50 -116.5q0 -91 -64 -133l492 -1509h-217l-109 371h-596l-108 -371h-207zM401 545h496l-201 684l-41 162h-6l-45 -162zM559 1636q0 -75 92 -75q94 0 94 75q0 76 -94 76q-92 0 -92 -76z" horiz-adv-x="1308" unicode="Å"/><glyph d="M78 0l760 1536h989l6 -184h-690l39 -467h542v-170h-528l47 -533h606l-4 -182h-782l-31 373h-555l-170 -373h-229zM557 545h461l-55 686l-11 166l-6 2l-65 -154z" horiz-adv-x="1935" unicode="Æ"/><glyph d="M113 784q0 405 145.5 591t458.5 186q82 0 171.5 -19.5t147.5 -46.5l-22 -180q-121 59 -285 59q-111 0 -186.5 -28t-128 -96t-76 -182t-23.5 -284q0 -183 24 -304.5t77.5 -193t129.5 -101t189 -29.5q152 0 283 67l24 -168q-119 -68 -280 -80l-66 -362h-172l111 364 q-270 20 -396 213t-126 594z" horiz-adv-x="1116" unicode="Ç"/><glyph d="M178 0v1536h848l4 -184h-657v-467h563v-170h-563v-533h690l-6 -182h-879zM348 1866h227l152 -232h-149z" horiz-adv-x="1144" unicode="È"/><glyph d="M178 0v1536h848l4 -184h-657v-467h563v-170h-563v-533h690l-6 -182h-879zM504 1632l147 232h244l-242 -232h-149z" horiz-adv-x="1144" unicode="É"/><glyph d="M178 0v1536h848l4 -184h-657v-467h563v-170h-563v-533h690l-6 -182h-879zM313 1632l209 232h193l217 -232h-172l-142 150l-137 -150h-168z" horiz-adv-x="1144" unicode="Ê"/><glyph d="M178 0v1536h848l4 -184h-657v-467h563v-170h-563v-533h690l-6 -182h-879zM352 1733q0 92 88 92t88 -92q0 -91 -88 -91q-45 0 -66.5 21t-21.5 70zM711 1733q0 44 22.5 68t65.5 24q88 0 88 -92q0 -91 -88 -91q-44 0 -66 21.5t-22 69.5z" horiz-adv-x="1144" unicode="Ë"/><glyph d="M31 1866h227l152 -232h-150zM203 0v1536h198v-1536h-198z" horiz-adv-x="602" unicode="Ì"/><glyph d="M186 1632l148 232h244l-242 -232h-150zM203 0v1536h198v-1536h-198z" horiz-adv-x="602" unicode="Í"/><glyph d="M-4 1632l209 232h192l217 -232h-172l-141 150l-137 -150h-168zM203 0v1536h198v-1536h-198z" horiz-adv-x="602" unicode="Î"/><glyph d="M35 1733q0 92 88 92t88 -92q0 -91 -88 -91q-45 0 -66.5 21t-21.5 70zM203 0v1536h198v-1536h-198zM393 1733q0 44 22.5 68t65.5 24q88 0 88 -92q0 -91 -88 -91q-44 0 -66 21.5t-22 69.5z" horiz-adv-x="602" unicode="Ï"/><glyph d="M61 739v127h134v670h467q216 0 347 -75t194 -242t63 -445q0 -282 -66 -453t-196 -246t-338 -75h-471v739h-134zM389 184h275q85 0 145.5 15t111 53.5t80.5 105.5t46 170t16 248q0 173 -22 284.5t-73 175.5t-123 89t-183 25h-273v-484h197v-127h-197v-555z" horiz-adv-x="1378" unicode="Ð"/><glyph d="M178 0v1536h178l609 -1024l84 -143l4 2l-4 164v1001h170v-1536h-142l-641 1057l-82 143l-4 -2l2 -166v-1032h-174zM428 1647q8 94 51.5 151t114.5 57q38 0 76.5 -18.5t64 -40.5t55 -40.5t52.5 -18.5q59 0 76 94l83 -2q-8 -96 -52 -153.5t-115 -57.5q-37 0 -74 19 t-62 41.5t-54 41.5t-52 19q-27 0 -46.5 -25.5t-27.5 -68.5z" horiz-adv-x="1398" unicode="Ñ"/><glyph d="M113 768q0 291 58 463.5t182 251t333 78.5t332 -78.5t180 -250.5t57 -464q0 -295 -57 -467.5t-180 -250t-332 -77.5q-207 0 -331 78.5t-183 252t-59 464.5zM315 768q0 -147 13.5 -250.5t40 -173.5t72.5 -110.5t104 -57t141 -16.5q104 0 170.5 26.5t112.5 95t65 185.5 t19 301q0 185 -19 301.5t-65 185t-112.5 94t-172.5 25.5q-83 0 -141 -16.5t-103.5 -56.5t-71.5 -109.5t-39.5 -173t-13.5 -250.5zM449 1866h227l151 -232h-149z" horiz-adv-x="1368" unicode="Ò"/><glyph d="M113 768q0 291 58 463.5t182 251t333 78.5t332 -78.5t180 -250.5t57 -464q0 -295 -57 -467.5t-180 -250t-332 -77.5q-207 0 -331 78.5t-183 252t-59 464.5zM315 768q0 -147 13.5 -250.5t40 -173.5t72.5 -110.5t104 -57t141 -16.5q104 0 170.5 26.5t112.5 95t65 185.5 t19 301q0 185 -19 301.5t-65 185t-112.5 94t-172.5 25.5q-83 0 -141 -16.5t-103.5 -56.5t-71.5 -109.5t-39.5 -173t-13.5 -250.5zM571 1632l148 232h244l-242 -232h-150z" horiz-adv-x="1368" unicode="Ó"/><glyph d="M113 768q0 291 58 463.5t182 251t333 78.5t332 -78.5t180 -250.5t57 -464q0 -295 -57 -467.5t-180 -250t-332 -77.5q-207 0 -331 78.5t-183 252t-59 464.5zM315 768q0 -147 13.5 -250.5t40 -173.5t72.5 -110.5t104 -57t141 -16.5q104 0 170.5 26.5t112.5 95t65 185.5 t19 301q0 185 -19 301.5t-65 185t-112.5 94t-172.5 25.5q-83 0 -141 -16.5t-103.5 -56.5t-71.5 -109.5t-39.5 -173t-13.5 -250.5zM379 1632l209 232h192l217 -232h-172l-141 150l-137 -150h-168z" horiz-adv-x="1368" unicode="Ô"/><glyph d="M113 768q0 291 58 463.5t182 251t333 78.5t332 -78.5t180 -250.5t57 -464q0 -295 -57 -467.5t-180 -250t-332 -77.5q-207 0 -331 78.5t-183 252t-59 464.5zM315 768q0 -147 13.5 -250.5t40 -173.5t72.5 -110.5t104 -57t141 -16.5q104 0 170.5 26.5t112.5 95t65 185.5 t19 301q0 185 -19 301.5t-65 185t-112.5 94t-172.5 25.5q-83 0 -141 -16.5t-103.5 -56.5t-71.5 -109.5t-39.5 -173t-13.5 -250.5zM401 1647q8 94 51.5 151t114.5 57q38 0 76.5 -18.5t64 -40.5t55 -40.5t52.5 -18.5q59 0 76 94l84 -2q-8 -95 -52.5 -153t-115.5 -58 q-37 0 -74 19t-62 41.5t-54 41.5t-52 19q-27 0 -46 -25t-27 -69z" horiz-adv-x="1368" unicode="Õ"/><glyph d="M113 768q0 291 58 463.5t182 251t333 78.5t332 -78.5t180 -250.5t57 -464q0 -295 -57 -467.5t-180 -250t-332 -77.5q-207 0 -331 78.5t-183 252t-59 464.5zM315 768q0 -147 13.5 -250.5t40 -173.5t72.5 -110.5t104 -57t141 -16.5q104 0 170.5 26.5t112.5 95t65 185.5 t19 301q0 185 -19 301.5t-65 185t-112.5 94t-172.5 25.5q-83 0 -141 -16.5t-103.5 -56.5t-71.5 -109.5t-39.5 -173t-13.5 -250.5zM420 1733q0 92 88 92t88 -92q0 -91 -88 -91q-45 0 -66.5 21t-21.5 70zM778 1733q0 44 22.5 68t65.5 24q88 0 88 -92q0 -91 -88 -91 q-44 0 -66 21.5t-22 69.5z" horiz-adv-x="1368" unicode="Ö"/><glyph d="M172 965l109 116l278 -274l277 276l108 -118l-280 -275l276 -276l-104 -117l-277 276l-278 -276l-107 117l277 276z" horiz-adv-x="1114" unicode="×"/><glyph d="M84 61l117 168q-88 180 -88 539q0 292 57.5 464t181 250.5t332.5 78.5q282 0 416 -152l112 147l97 -88l-133 -182q79 -180 79 -518q0 -295 -57 -467.5t-180.5 -250t-333.5 -77.5q-271 0 -405 140l-97 -140zM315 768q0 -222 31 -362l631 833q-41 74 -112 104.5t-181 30.5 q-83 0 -141 -16.5t-103.5 -56.5t-71.5 -109.5t-39.5 -173t-13.5 -250.5zM395 287q43 -69 113 -98t178 -29q104 0 170.5 26.5t112.5 95t65 185.5t19 301q0 209 -25 350z" horiz-adv-x="1368" unicode="Ø"/><glyph d="M154 518v1018h192v-1016q0 -187 81.5 -272.5t252.5 -85.5q170 0 250 86t80 272v1016h194v-1018q0 -279 -132.5 -412t-391.5 -133q-260 0 -393 133t-133 412zM408 1866h227l151 -232h-149z" horiz-adv-x="1357" unicode="Ù"/><glyph d="M154 518v1018h192v-1016q0 -187 81.5 -272.5t252.5 -85.5q170 0 250 86t80 272v1016h194v-1018q0 -279 -132.5 -412t-391.5 -133q-260 0 -393 133t-133 412zM563 1632l148 232h243l-241 -232h-150z" horiz-adv-x="1357" unicode="Ú"/><glyph d="M154 518v1018h192v-1016q0 -187 81.5 -272.5t252.5 -85.5q170 0 250 86t80 272v1016h194v-1018q0 -279 -132.5 -412t-391.5 -133q-260 0 -393 133t-133 412zM373 1632l209 232h192l217 -232h-172l-141 150l-137 -150h-168z" horiz-adv-x="1357" unicode="Û"/><glyph d="M154 518v1018h192v-1016q0 -187 81.5 -272.5t252.5 -85.5q170 0 250 86t80 272v1016h194v-1018q0 -279 -132.5 -412t-391.5 -133q-260 0 -393 133t-133 412zM412 1733q0 92 88 92t88 -92q0 -91 -88 -91q-45 0 -66.5 21t-21.5 70zM770 1733q0 44 22.5 68t65.5 24 q88 0 88 -92q0 -91 -88 -91q-44 0 -66 21.5t-22 69.5z" horiz-adv-x="1357" unicode="Ü"/><glyph d="M41 1536h221l297 -678l64 -151h6l61 151l291 678h215l-475 -1018v-518h-199v518zM506 1632l147 232h244l-242 -232h-149z" horiz-adv-x="1234" unicode="Ý"/><glyph d="M178 0v1536h195v-272h227q281 0 403.5 -110.5t122.5 -365.5q0 -246 -121.5 -359.5t-404.5 -113.5h-227v-315h-195zM373 483h227q178 0 253 66t75 242q0 166 -74 231t-254 65h-227v-604z" unicode="Þ"/><glyph d="M166 0v1049q0 250 112 382t324 132q151 0 246.5 -81t95.5 -202q0 -55 -25.5 -108.5t-62 -94t-73 -76.5t-62 -69t-25.5 -58q0 -23 23 -46.5t59.5 -47t81 -50.5t89 -62.5t81 -77t59.5 -100t23 -125.5q0 -180 -114 -280.5t-302 -100.5q-80 0 -158.5 19t-129.5 56l14 164 q90 -69 244 -69q119 0 191.5 51.5t72.5 152.5q0 51 -23.5 96t-61 78.5t-82.5 64.5t-90 59.5t-82.5 56.5t-61 63.5t-23.5 73.5q0 41 27 85.5t66 83.5t78 79t66 86t27 90q0 59 -46.5 94t-125.5 35q-254 0 -254 -340v-1063h-178z" horiz-adv-x="1187" unicode="ß"/><glyph d="M102 373q0 178 103.5 274t298.5 96q135 0 248 -45v131q0 142 -59.5 199t-196.5 57q-168 0 -310 -71l-16 155q156 78 356 78q219 0 311.5 -101.5t92.5 -342.5v-803h-137l-17 145l-6 2q-50 -77 -134.5 -120t-189.5 -43q-161 0 -252.5 96t-91.5 293zM274 375 q0 -238 222 -238q101 0 178.5 62t77.5 141v225q-24 16 -82.5 29.5t-132.5 13.5q-263 0 -263 -233zM287 1649h217l127 -287h-142z" horiz-adv-x="1069" unicode="à"/><glyph d="M102 373q0 178 103.5 274t298.5 96q135 0 248 -45v131q0 142 -59.5 199t-196.5 57q-168 0 -310 -71l-16 155q156 78 356 78q219 0 311.5 -101.5t92.5 -342.5v-803h-137l-17 145l-6 2q-50 -77 -134.5 -120t-189.5 -43q-161 0 -252.5 96t-91.5 293zM274 375 q0 -238 222 -238q101 0 178.5 62t77.5 141v225q-24 16 -82.5 29.5t-132.5 13.5q-263 0 -263 -233zM414 1362l135 287h217l-213 -287h-139z" horiz-adv-x="1069" unicode="á"/><glyph d="M102 373q0 178 103.5 274t298.5 96q135 0 248 -45v131q0 142 -59.5 199t-196.5 57q-168 0 -310 -71l-16 155q156 78 356 78q219 0 311.5 -101.5t92.5 -342.5v-803h-137l-17 145l-6 2q-50 -77 -134.5 -120t-189.5 -43q-161 0 -252.5 96t-91.5 293zM256 1362l193 287h157 l199 -287h-141l-136 205l-133 -205h-139zM274 375q0 -238 222 -238q101 0 178.5 62t77.5 141v225q-24 16 -82.5 29.5t-132.5 13.5q-263 0 -263 -233z" horiz-adv-x="1069" unicode="â"/><glyph d="M102 373q0 178 103.5 274t298.5 96q135 0 248 -45v131q0 142 -59.5 199t-196.5 57q-168 0 -310 -71l-16 155q156 78 356 78q219 0 311.5 -101.5t92.5 -342.5v-803h-137l-17 145l-6 2q-50 -77 -134.5 -120t-189.5 -43q-161 0 -252.5 96t-91.5 293zM246 1405 q8 106 51.5 169.5t112.5 63.5q32 0 62 -14t52 -34t42.5 -39.5t43.5 -33.5t45 -14q28 0 48.5 29.5t29.5 83.5l88 -2q-8 -105 -52.5 -168.5t-113.5 -63.5q-38 0 -74.5 21t-59.5 46t-53 46t-56 21q-27 0 -48 -30.5t-32 -82.5zM274 375q0 -238 222 -238q101 0 178.5 62t77.5 141 v225q-24 16 -82.5 29.5t-132.5 13.5q-263 0 -263 -233z" horiz-adv-x="1069" unicode="ã"/><glyph d="M102 373q0 178 103.5 274t298.5 96q135 0 248 -45v131q0 142 -59.5 199t-196.5 57q-168 0 -310 -71l-16 155q156 78 356 78q219 0 311.5 -101.5t92.5 -342.5v-803h-137l-17 145l-6 2q-50 -77 -134.5 -120t-189.5 -43q-161 0 -252.5 96t-91.5 293zM274 375 q0 -238 222 -238q101 0 178.5 62t77.5 141v225q-24 16 -82.5 29.5t-132.5 13.5q-263 0 -263 -233zM297 1534q0 46 22.5 71t65.5 25q90 0 90 -96t-90 -96q-44 0 -66 22.5t-22 73.5zM604 1534q0 96 88 96q90 0 90 -96t-90 -96q-45 0 -66.5 22.5t-21.5 73.5z" horiz-adv-x="1069" unicode="ä"/><glyph d="M102 373q0 178 103.5 274t298.5 96q135 0 248 -45v131q0 142 -59.5 199t-196.5 57q-168 0 -310 -71l-16 155q156 78 356 78q219 0 311.5 -101.5t92.5 -342.5v-803h-137l-17 145l-6 2q-50 -77 -134.5 -120t-189.5 -43q-161 0 -252.5 96t-91.5 293zM274 375 q0 -238 222 -238q101 0 178.5 62t77.5 141v225q-24 16 -82.5 29.5t-132.5 13.5q-263 0 -263 -233zM340 1526q0 72 50 114.5t145 42.5q92 0 143 -43t51 -114q0 -75 -50.5 -116.5t-143.5 -41.5t-144 41t-51 117zM434 1526q0 -37 25.5 -58.5t77.5 -21.5q49 0 75.5 21.5 t26.5 58.5q0 35 -26.5 56.5t-75.5 21.5q-51 0 -77 -21.5t-26 -56.5z" horiz-adv-x="1069" unicode="å"/><glyph d="M102 369q0 178 103.5 274t298.5 96q133 0 248 -47v133q0 142 -59.5 199t-196.5 57q-168 0 -310 -71l-16 155q167 78 356 78q133 0 213.5 -40.5t118.5 -129.5h4q108 170 342 170q198 0 311 -137t113 -424q0 -40 -4 -94h-702q4 -169 43 -267t112 -138t195 -40q153 0 299 78 l20 -160q-146 -84 -340 -84q-311 0 -415 216h-7q-50 -101 -145 -157t-219 -56q-173 0 -268 95.5t-95 293.5zM272 371q0 -238 224 -238q111 0 183.5 67t72.5 169v192q-24 16 -82.5 29.5t-132.5 13.5q-265 0 -265 -233zM918 717h544q-5 366 -268 366q-138 0 -203 -87.5 t-73 -278.5z" horiz-adv-x="1716" unicode="æ"/><glyph d="M92 623q0 318 114.5 468t362.5 150q152 0 269 -57l-13 -164q-104 51 -219 51q-179 0 -253 -101t-74 -347q0 -261 79 -372.5t244 -111.5q128 0 229 66l15 -152q-92 -66 -232 -78l-65 -362h-172l110 364q-200 22 -297.5 177.5t-97.5 468.5z" horiz-adv-x="923" unicode="ç"/><glyph d="M92 645q0 598 457 598q208 0 323 -136t115 -425q0 -54 -6 -94h-702q4 -169 42.5 -266.5t111.5 -138t196 -40.5q154 0 299 74l20 -156q-146 -84 -340 -84q-274 0 -395 157t-121 511zM274 717h545q-3 366 -268 366q-139 0 -204 -87t-73 -279zM309 1649h217l127 -287h-141z" horiz-adv-x="1075" unicode="è"/><glyph d="M92 645q0 598 457 598q208 0 323 -136t115 -425q0 -54 -6 -94h-702q4 -169 42.5 -266.5t111.5 -138t196 -40.5q154 0 299 74l20 -156q-146 -84 -340 -84q-274 0 -395 157t-121 511zM274 717h545q-3 366 -268 366q-139 0 -204 -87t-73 -279zM434 1362l135 287h217 l-213 -287h-139z" horiz-adv-x="1075" unicode="é"/><glyph d="M92 645q0 598 457 598q208 0 323 -136t115 -425q0 -54 -6 -94h-702q4 -169 42.5 -266.5t111.5 -138t196 -40.5q154 0 299 74l20 -156q-146 -84 -340 -84q-274 0 -395 157t-121 511zM274 717h545q-3 366 -268 366q-139 0 -204 -87t-73 -279zM276 1362l193 287h158 l198 -287h-141l-135 205l-133 -205h-140z" horiz-adv-x="1075" unicode="ê"/><glyph d="M92 645q0 598 457 598q208 0 323 -136t115 -425q0 -54 -6 -94h-702q4 -169 42.5 -266.5t111.5 -138t196 -40.5q154 0 299 74l20 -156q-146 -84 -340 -84q-274 0 -395 157t-121 511zM274 717h545q-3 366 -268 366q-139 0 -204 -87t-73 -279zM293 1534q0 46 22.5 71 t65.5 25q90 0 90 -96t-90 -96q-44 0 -66 22.5t-22 73.5zM600 1534q0 96 88 96q90 0 90 -96t-90 -96q-45 0 -66.5 22.5t-21.5 73.5z" horiz-adv-x="1075" unicode="ë"/><glyph d="M51 1649h217l127 -287h-141zM201 0v1217l182 12v-1229h-182z" horiz-adv-x="583" unicode="ì"/><glyph d="M176 1362l135 287h217l-213 -287h-139zM201 0v1217l182 12v-1229h-182z" horiz-adv-x="583" unicode="í"/><glyph d="M18 1362l193 287h158l198 -287h-141l-135 205l-133 -205h-140zM201 0v1217l182 12v-1229h-182z" horiz-adv-x="583" unicode="î"/><glyph d="M57 1534q0 46 22.5 71t65.5 25q91 0 91 -96t-91 -96q-44 0 -66 22.5t-22 73.5zM201 0v1217l182 12v-1229h-182zM365 1534q0 96 88 96q90 0 90 -96t-90 -96q-45 0 -66.5 22.5t-21.5 73.5z" horiz-adv-x="583" unicode="ï"/><glyph d="M92 594q0 300 105 435.5t331 135.5q167 0 273 -84l4 4q-75 147 -203 275l-162 -127l-71 76l153 123q-66 56 -174 129l125 88q88 -53 164 -123l151 121l70 -84l-143 -115q149 -161 242.5 -362t93.5 -398q0 -200 -29.5 -337.5t-91 -219.5t-148.5 -118t-209 -36 q-94 0 -166.5 18t-133 61t-99.5 113t-60.5 176.5t-21.5 248.5zM279 586q0 -135 18 -224.5t57 -138t89.5 -67.5t125.5 -19q151 0 223 121t72 391q0 185 -72.5 270t-220.5 85q-160 0 -226 -92t-66 -326z" horiz-adv-x="1142" unicode="ð"/><glyph d="M156 0v1221l129 10l28 -123h6q55 64 140.5 100.5t179.5 36.5q177 0 276 -103.5t99 -305.5v-836h-178v836q0 239 -246 239q-75 0 -146.5 -36t-107.5 -97v-942h-180zM301 1405q8 106 51.5 169.5t112.5 63.5q39 0 76 -21t60.5 -46.5t53 -46.5t56.5 -21q58 0 77 113l89 -2 q-8 -105 -52.5 -168.5t-113.5 -63.5q-38 0 -74.5 21t-60 46t-53.5 46t-56 21q-27 0 -48 -30.5t-32 -82.5z" horiz-adv-x="1153" unicode="ñ"/><glyph d="M92 608q0 232 52.5 372.5t156 201.5t272.5 61q253 0 364.5 -144.5t111.5 -490.5q0 -234 -50.5 -373.5t-153.5 -200.5t-272 -61q-170 0 -273.5 61t-155.5 200.5t-52 373.5zM279 608q0 -184 30 -287.5t92 -146.5t172 -43q107 0 168.5 43.5t91 147t29.5 286.5t-29.5 286.5 t-91 147t-168.5 43.5q-109 0 -171.5 -43.5t-92.5 -147t-30 -286.5zM332 1649h217l127 -287h-141z" horiz-adv-x="1140" unicode="ò"/><glyph d="M92 608q0 232 52.5 372.5t156 201.5t272.5 61q253 0 364.5 -144.5t111.5 -490.5q0 -234 -50.5 -373.5t-153.5 -200.5t-272 -61q-170 0 -273.5 61t-155.5 200.5t-52 373.5zM279 608q0 -184 30 -287.5t92 -146.5t172 -43q107 0 168.5 43.5t91 147t29.5 286.5t-29.5 286.5 t-91 147t-168.5 43.5q-109 0 -171.5 -43.5t-92.5 -147t-30 -286.5zM457 1362l135 287h217l-213 -287h-139z" horiz-adv-x="1140" unicode="ó"/><glyph d="M92 608q0 232 52.5 372.5t156 201.5t272.5 61q253 0 364.5 -144.5t111.5 -490.5q0 -234 -50.5 -373.5t-153.5 -200.5t-272 -61q-170 0 -273.5 61t-155.5 200.5t-52 373.5zM279 608q0 -184 30 -287.5t92 -146.5t172 -43q107 0 168.5 43.5t91 147t29.5 286.5t-29.5 286.5 t-91 147t-168.5 43.5q-109 0 -171.5 -43.5t-92.5 -147t-30 -286.5zM299 1362l193 287h157l199 -287h-141l-136 205l-133 -205h-139z" horiz-adv-x="1140" unicode="ô"/><glyph d="M92 608q0 232 52.5 372.5t156 201.5t272.5 61q253 0 364.5 -144.5t111.5 -490.5q0 -234 -50.5 -373.5t-153.5 -200.5t-272 -61q-170 0 -273.5 61t-155.5 200.5t-52 373.5zM279 608q0 -184 30 -287.5t92 -146.5t172 -43q107 0 168.5 43.5t91 147t29.5 286.5t-29.5 286.5 t-91 147t-168.5 43.5q-109 0 -171.5 -43.5t-92.5 -147t-30 -286.5zM291 1405q8 106 51.5 169.5t112.5 63.5q32 0 62 -14t52 -34t42.5 -39.5t43.5 -33.5t45 -14q28 0 48.5 29.5t29.5 83.5l88 -2q-8 -105 -52.5 -168.5t-113.5 -63.5q-38 0 -74.5 21t-59.5 46t-53 46t-56 21 q-27 0 -48 -30.5t-32 -82.5z" horiz-adv-x="1140" unicode="õ"/><glyph d="M92 608q0 232 52.5 372.5t156 201.5t272.5 61q253 0 364.5 -144.5t111.5 -490.5q0 -234 -50.5 -373.5t-153.5 -200.5t-272 -61q-170 0 -273.5 61t-155.5 200.5t-52 373.5zM279 608q0 -184 30 -287.5t92 -146.5t172 -43q107 0 168.5 43.5t91 147t29.5 286.5t-29.5 286.5 t-91 147t-168.5 43.5q-109 0 -171.5 -43.5t-92.5 -147t-30 -286.5zM328 1534q0 46 22.5 71t65.5 25q90 0 90 -96t-90 -96q-44 0 -66 22.5t-22 73.5zM635 1534q0 96 88 96q90 0 90 -96t-90 -96q-45 0 -66.5 22.5t-21.5 73.5z" horiz-adv-x="1140" unicode="ö"/><glyph d="M119 610v174h876v-174h-876zM434 369q0 54 32.5 82t90.5 28q123 0 123 -110q0 -107 -123 -107q-61 0 -92 24t-31 83zM434 1022q0 53 32.5 82t90.5 29q59 0 91 -28.5t32 -82.5q0 -53 -32 -81t-91 -28q-60 0 -91.5 25t-31.5 84z" horiz-adv-x="1114" unicode="÷"/><glyph d="M70 63l90 130q-68 148 -68 415q0 233 52 372.5t155.5 201t271.5 61.5q210 0 320 -98l70 100l81 -74l-79 -116q84 -147 84 -447q0 -234 -50.5 -373.5t-153.5 -200.5t-272 -61q-238 0 -348 121l-76 -102zM276 608q0 -134 17 -241l500 620q-64 98 -222 98q-108 0 -171 -43 t-93.5 -147t-30.5 -287zM330 260q33 -69 91 -99t150 -30q107 0 168.5 43.5t91 147t29.5 286.5q0 168 -22 281z" horiz-adv-x="1140" unicode="ø"/><glyph d="M137 385v840h180v-838q0 -240 250 -240q252 0 252 240v838h178v-840q0 -200 -107 -304t-323 -104q-214 0 -322 105t-108 303zM330 1649h217l127 -287h-142z" horiz-adv-x="1136" unicode="ù"/><glyph d="M137 385v840h180v-838q0 -240 250 -240q252 0 252 240v838h178v-840q0 -200 -107 -304t-323 -104q-214 0 -322 105t-108 303zM457 1362l135 287h217l-213 -287h-139z" horiz-adv-x="1136" unicode="ú"/><glyph d="M137 385v840h180v-838q0 -240 250 -240q252 0 252 240v838h178v-840q0 -200 -107 -304t-323 -104q-214 0 -322 105t-108 303zM297 1362l192 287h158l199 -287h-141l-136 205l-133 -205h-139z" horiz-adv-x="1136" unicode="û"/><glyph d="M137 385v840h180v-838q0 -240 250 -240q252 0 252 240v838h178v-840q0 -200 -107 -304t-323 -104q-214 0 -322 105t-108 303zM326 1534q0 46 22.5 71t65.5 25q90 0 90 -96t-90 -96q-44 0 -66 22.5t-22 73.5zM633 1534q0 96 88 96q90 0 90 -96t-90 -96q-45 0 -66.5 22.5 t-21.5 73.5z" horiz-adv-x="1136" unicode="ü"/><glyph d="M63 1225h207l308 -889l51 -158h6l41 160l248 887h194l-397 -1237q-53 -166 -139 -236.5t-209 -70.5q-101 0 -172 36l18 138q64 -31 123 -31q68 0 114.5 33.5t80.5 117.5l6 23zM473 1362l135 287h217l-213 -287h-139z" horiz-adv-x="1179" unicode="ý"/><glyph d="M166 -297v1919l182 10v-358l-2 -164l4 -2q58 64 140.5 99.5t177.5 35.5q100 0 172.5 -30.5t126.5 -101.5t81 -194.5t27 -302.5q0 -332 -109.5 -484.5t-316.5 -152.5q-192 0 -299 121l-4 -2l2 -166v-227h-182zM348 285q34 -64 98.5 -106t155.5 -42q68 0 117 21t88.5 72.5 t59.5 148t20 237.5q0 136 -17 226.5t-53.5 140.5t-85 70t-119.5 20q-178 0 -264 -137v-651z" horiz-adv-x="1167" unicode="þ"/><glyph d="M63 1225h207l308 -889l51 -158h6l41 160l248 887h194l-397 -1237q-53 -166 -139 -236.5t-209 -70.5q-101 0 -172 36l18 138q64 -31 123 -31q68 0 114.5 33.5t80.5 117.5l6 23zM348 1534q0 46 22.5 71t65.5 25q90 0 90 -96t-90 -96q-44 0 -66 22.5t-22 73.5zM655 1534 q0 96 88 96q91 0 91 -96t-91 -96q-45 0 -66.5 22.5t-21.5 73.5z" horiz-adv-x="1179" unicode="ÿ"/><glyph d="M113 768q0 289 56.5 463t173 252t308.5 78q295 0 406 -189h6v164h829l4 -184h-657v-467h563v-170h-563v-533h690l-6 -182h-860v180l-6 2q-112 -209 -408 -209q-189 0 -305 78.5t-173.5 253t-57.5 463.5zM315 768q0 -147 13.5 -250.5t40 -173.5t72.5 -110.5t104 -57 t141 -16.5q138 0 214 50.5t112.5 182t36.5 375.5q0 148 -12.5 251t-38 173.5t-70 109.5t-102.5 55.5t-142 16.5q-83 0 -141 -16.5t-103.5 -56.5t-71.5 -109.5t-39.5 -173t-13.5 -250.5z" horiz-adv-x="2011" unicode="Œ"/><glyph d="M106 608q0 232 52 372.5t153 201.5t262 61q150 0 246.5 -51.5t145.5 -161.5h6q92 213 364 213q204 0 317 -136t113 -425q0 -40 -4 -94h-700q4 -169 42.5 -266.5t111.5 -138t196 -40.5q151 0 297 78l21 -160q-146 -84 -336 -84q-166 0 -266.5 55.5t-151.5 176.5h-6 q-48 -125 -145 -180.5t-251 -55.5q-163 0 -264 60.5t-152 201t-51 373.5zM291 608q0 -184 30.5 -287.5t93 -146.5t171.5 -43q108 0 169.5 43.5t90 146.5t28.5 287t-28.5 287t-90 146.5t-169.5 43.5t-171 -43t-93.5 -147t-30.5 -287zM1057 717h542q-3 366 -268 366 q-138 0 -203 -87.5t-71 -278.5z" horiz-adv-x="1853" unicode="œ"/><glyph d="M41 1536h221l297 -678l64 -151h6l61 151l291 678h215l-475 -1018v-518h-199v518zM354 1733q0 92 88 92t88 -92q0 -91 -88 -91q-45 0 -66.5 21t-21.5 70zM713 1733q0 44 22.5 68t65.5 24q88 0 88 -92q0 -91 -88 -91q-44 0 -66 21.5t-22 69.5z" horiz-adv-x="1234" unicode="Ÿ"/><glyph d="M109 1362l192 287h158l198 -287h-141l-135 205l-133 -205h-139z" horiz-adv-x="761" unicode="ˆ"/><glyph d="M106 1405q8 106 51.5 169.5t112.5 63.5q39 0 76 -21t60.5 -46.5t53 -46.5t56.5 -21q28 0 48.5 29.5t29.5 83.5l88 -2q-8 -105 -52.5 -168.5t-113.5 -63.5q-38 0 -74.5 21t-60 46t-53.5 46t-56 21q-27 0 -47.5 -30.5t-31.5 -82.5z" horiz-adv-x="761" unicode="˜"/><glyph horiz-adv-x="933"/><glyph horiz-adv-x="1866"/><glyph horiz-adv-x="933"/><glyph horiz-adv-x="1866"/><glyph horiz-adv-x="622"/><glyph horiz-adv-x="466"/><glyph horiz-adv-x="311"/><glyph horiz-adv-x="311"/><glyph horiz-adv-x="233"/><glyph horiz-adv-x="373"/><glyph horiz-adv-x="103"/><glyph d="M129 633v139h498v-139h-498z" horiz-adv-x="755" unicode="‐"/><glyph d="M129 633v139h498v-139h-498z" horiz-adv-x="755" unicode="‑"/><glyph d="M129 633v139h498v-139h-498z" horiz-adv-x="755" unicode="‒"/><glyph d="M131 633v139h741v-139h-741z" horiz-adv-x="1003" unicode="–"/><glyph d="M131 633v139h1088v-139h-1088z" horiz-adv-x="1349" unicode="—"/><glyph d="M104 1311q0 55 46 172.5t96 199.5l65 -16l-51 -250q33 -11 56.5 -42t23.5 -70q0 -56 -28.5 -89.5t-88.5 -33.5t-89.5 34t-29.5 95z" horiz-adv-x="442" unicode="‘"/><glyph d="M104 1499q0 56 28.5 89.5t88.5 33.5t89.5 -34t29.5 -95q0 -55 -45.5 -173t-95.5 -200l-66 17l51 249q-33 11 -56.5 42.5t-23.5 70.5z" horiz-adv-x="442" unicode="’"/><glyph d="M104 92q0 56 28.5 89.5t88.5 33.5t89.5 -34t29.5 -95q0 -55 -45.5 -173t-95.5 -200l-66 17l51 250q-33 11 -56.5 42t-23.5 70z" horiz-adv-x="442" unicode="‚"/><glyph d="M104 1311q0 55 46 172.5t96 199.5l65 -16l-51 -250q33 -11 56.5 -42t23.5 -70q0 -56 -28.5 -89.5t-88.5 -33.5t-89.5 34t-29.5 95zM449 1311q0 55 45.5 172.5t95.5 199.5l65 -16l-51 -250q33 -11 56.5 -42t23.5 -70q0 -56 -28.5 -89.5t-88.5 -33.5t-89 34t-29 95z" horiz-adv-x="788" unicode="“"/><glyph d="M104 1497q0 56 28.5 89.5t88.5 33.5t89.5 -34t29.5 -95q0 -55 -45.5 -173t-95.5 -200l-66 17l51 249q-33 11 -56.5 42.5t-23.5 70.5zM449 1497q0 56 28 89.5t88 33.5t89.5 -34t29.5 -95q0 -55 -45.5 -173t-95.5 -200l-66 17l51 249q-33 11 -56 42.5t-23 70.5z" horiz-adv-x="786" unicode="”"/><glyph d="M104 92q0 56 28.5 89.5t88.5 33.5t89.5 -34t29.5 -95q0 -55 -45.5 -173t-95.5 -200l-66 17l51 250q-33 11 -56.5 42t-23.5 70zM449 92q0 56 28 89.5t88 33.5t89.5 -34t29.5 -95q0 -55 -45.5 -173t-95.5 -200l-66 17l51 250q-33 11 -56 42t-23 70z" horiz-adv-x="788" unicode="„"/><glyph d="M123 666q0 268 264 268t264 -268q0 -138 -65.5 -205.5t-198.5 -67.5t-198.5 67.5t-65.5 205.5z" horiz-adv-x="782" unicode="•"/><glyph d="M119 98q0 119 121 119q118 0 118 -119q0 -121 -118 -121q-62 0 -91.5 28.5t-29.5 92.5zM508 98q0 119 121 119q119 0 119 -119q0 -58 -30 -89.5t-89 -31.5q-62 0 -91.5 28.5t-29.5 92.5zM879 98q0 119 120 119q119 0 119 -119q0 -58 -30 -89.5t-89 -31.5q-62 0 -91 28.5 t-29 92.5z" horiz-adv-x="1236" unicode="…"/><glyph horiz-adv-x="373"/><glyph d="M86 655v17l555 379v-152l-369 -235l369 -236v-152z" horiz-adv-x="770" unicode="‹"/><glyph d="M129 276v152l369 236l-369 235v152l555 -379v-17z" horiz-adv-x="770" unicode="›"/><glyph horiz-adv-x="466"/><glyph d="M68 592v115h157v127h-157v116h165q31 292 180.5 445t405.5 153q204 0 332 -69l-39 -162q-124 53 -256 53q-190 0 -295 -103t-133 -317h576l-25 -116h-561v-127h516l-25 -115h-483q27 -236 130 -339t294 -103q161 0 305 88l19 -156q-151 -98 -367 -98q-267 0 -405 146.5 t-169 461.5h-165z" unicode="€"/><glyph d="M57 1479v102h430v-102h-157v-451h-113v451h-160zM561 1028v553h144l102 -260l57 -156h6l56 154l104 262h137v-553h-98v260l4 166l-6 2l-57 -158l-105 -270h-80l-106 270l-57 156l-5 -2l2 -166v-258h-98z" horiz-adv-x="1257" unicode="™"/><glyph d="M0 0v1229h1229v-1229h-1229z" horiz-adv-x="1228" unicode="◼"/><glyph d="M59 1081v144h164v61q0 159 90.5 251.5t274.5 92.5q88 0 147 -18l-4 -129q-58 12 -106 12q-224 0 -224 -213v-57h693v-1225h-185v1081h-508v-1081h-178v1081h-164zM885 1532q0 102 116 102q119 0 119 -102t-119 -102q-59 0 -87.5 24t-28.5 78z" horiz-adv-x="1296" unicode="ﬁ"/><glyph d="M59 1081v144h162v63q0 352 469 352q77 0 192 -12t169 -14v-1614h-181v1493q-107 14 -182 14q-152 0 -219.5 -56.5t-67.5 -170.5v-55h234v-144h-234v-1081h-180v1081h-162z" horiz-adv-x="1241" unicode="ﬂ"/></font>
</defs>
</svg>
