<?xml version="1.0" standalone="no"?>
<!DOCTYPE svg PUBLIC "-//W3C//DTD SVG 1.1//EN" "http://www.w3.org/Graphics/SVG/1.1/DTD/svg11.dtd" >
<svg xmlns="http://www.w3.org/2000/svg">
<metadata></metadata>
<defs>
<font id="clan_probold" horiz-adv-x="1312" >
<font-face units-per-em="2048" ascent="1612" descent="-436" />
<missing-glyph horiz-adv-x="544" />
<glyph horiz-adv-x="0" />
<glyph horiz-adv-x="0" />
<glyph horiz-adv-x="682" />
<glyph unicode="&#xd;" horiz-adv-x="544" />
<glyph unicode=" "  horiz-adv-x="544" />
<glyph unicode="&#x09;" horiz-adv-x="544" />
<glyph unicode="&#xa0;" horiz-adv-x="544" />
<glyph unicode="!" horiz-adv-x="620" d="M137 135q0 162 178 162q179 0 179 -162q0 -160 -179 -160q-93 0 -135.5 37.5t-42.5 122.5zM137 1536h344l-47 -1090h-248z" />
<glyph unicode="&#x22;" horiz-adv-x="880" d="M96 1569h305l-55 -559h-205zM512 1569h305l-55 -559h-205z" />
<glyph unicode="#" d="M111 375v246h194l39 286h-231v242h260l49 387h254l-49 -387h174l49 387h248l-49 -387h157v-242h-184l-41 -286h225v-246h-252l-49 -375h-248l48 375h-177l-47 -375h-254l49 375h-165zM557 621h176l41 286h-176z" />
<glyph unicode="$" d="M141 1108q0 216 140.5 331.5t416.5 121.5l19 131l190 -15l-20 -129q142 -19 227 -55l-18 -285q-110 33 -252 49l-51 -339q67 -23 118 -46.5t106.5 -63t91.5 -86t59.5 -115.5t23.5 -152q0 -245 -131 -362.5t-412 -121.5l-20 -137l-174 16l18 132q-203 22 -330 92 q7 47 19 142.5t22 154.5q153 -82 328 -113l55 381q-50 18 -89 35t-85.5 41.5t-80.5 50.5t-68 62t-55.5 76t-34.5 92.5t-13 111.5zM432 1122q0 -51 45 -82.5t137 -64.5l41 293q-116 -4 -169.5 -43t-53.5 -103zM690 246q240 6 240 164q0 55 -48 93t-141 75z" />
<glyph unicode="%" horiz-adv-x="1511" d="M63 1198q0 186 76.5 271t243.5 85q160 0 238.5 -84t78.5 -272q0 -360 -319 -360q-163 0 -240.5 89t-77.5 271zM236 201l835 1263l180 -145l-835 -1264zM276 1198q0 -92 24.5 -126t82.5 -34q57 0 81.5 33.5t24.5 126.5q0 92 -24.5 126t-81.5 34q-58 0 -82.5 -33.5 t-24.5 -126.5zM811 338q0 187 75.5 274.5t243.5 87.5q160 0 239 -86.5t79 -275.5q0 -358 -320 -358q-163 0 -240 88.5t-77 269.5zM1024 338q0 -92 24 -125t82 -33t82.5 33t24.5 125q0 90 -25 124t-82 34q-58 0 -82 -33.5t-24 -124.5z" />
<glyph unicode="&#x26;" horiz-adv-x="1472" d="M59 403q0 141 72 248.5t197 202.5q-127 195 -127 332q0 80 23.5 145.5t74 118.5t138 82t206.5 29q189 0 307.5 -86.5t118.5 -227.5q0 -40 -11.5 -78.5t-27 -69t-47 -66t-55 -59t-68 -58t-70 -52.5t-75.5 -53q122 -131 272 -252q72 128 103 260h272q-9 -87 -49 -198.5 t-105 -219.5q135 -84 248 -131l-113 -288q-153 66 -325 186q-221 -197 -496 -197q-122 0 -214 36t-145 98.5t-78.5 137t-25.5 160.5zM389 432q0 -80 49 -122t135 -42q113 0 222 74q-162 137 -303 297q-103 -103 -103 -207zM498 1186q0 -68 65 -176q92 59 139.5 107t47.5 102 q0 49 -31.5 74.5t-83.5 25.5q-63 0 -100 -35t-37 -98z" />
<glyph unicode="'" horiz-adv-x="466" d="M80 1569h305l-55 -559h-205z" />
<glyph unicode="(" horiz-adv-x="731" d="M160 668q0 580 327 948l240 -21q-131 -194 -196.5 -431.5t-65.5 -495.5q0 -257 66 -495t194 -431l-238 -21q-158 173 -242.5 419.5t-84.5 527.5z" />
<glyph unicode=")" horiz-adv-x="731" d="M6 -258q129 192 194.5 429.5t65.5 496.5q0 257 -65 495t-195 432l240 21q327 -371 327 -948q0 -281 -84.5 -527.5t-242.5 -419.5z" />
<glyph unicode="*" horiz-adv-x="772" d="M33 1292l55 152l203 -51l24 211h148l22 -211l201 51l53 -152l-200 -86l118 -182l-112 -90l-154 164l-158 -166l-118 86l116 188z" />
<glyph unicode="+" horiz-adv-x="1232" d="M127 543v291h346v346h281v-346h350v-291h-350v-346h-281v346h-346z" />
<glyph unicode="," horiz-adv-x="542" d="M92 141q0 83 42.5 133t133.5 50q92 0 137.5 -50.5t45.5 -142.5q0 -78 -58.5 -207t-128.5 -221l-114 29l53 248q-45 21 -78 64.5t-33 96.5z" />
<glyph unicode="-" horiz-adv-x="798" d="M106 586v229h586v-229h-586z" />
<glyph unicode="." horiz-adv-x="550" d="M92 154q0 176 184 176q183 0 183 -176q0 -179 -183 -179q-97 0 -140.5 41.5t-43.5 137.5z" />
<glyph unicode="/" horiz-adv-x="944" d="M-12 -248l692 1854h274l-700 -1854h-266z" />
<glyph unicode="0" d="M86 762q0 290 59 463t182.5 251t329.5 78q202 0 325.5 -77.5t184 -251.5t60.5 -463q0 -412 -137 -597t-437 -185t-433.5 184t-133.5 598zM414 766q0 -107 6 -186t20 -134.5t32.5 -90.5t47.5 -55t60.5 -27t76.5 -7q52 0 88 11.5t67 43t48.5 87.5t27 144t9.5 214 q0 125 -9.5 212.5t-27 142.5t-48.5 86t-66.5 42t-88.5 11q-90 0 -139.5 -36.5t-76.5 -145t-27 -312.5z" />
<glyph unicode="1" d="M246 1245l456 291h203v-1294h223v-242h-794v242h227v886l-280 -161z" />
<glyph unicode="2" d="M141 1393q213 161 512 161q257 0 393 -121.5t136 -328.5q0 -82 -30 -164t-76.5 -153.5t-128.5 -157.5t-160 -156.5t-197 -169.5v-6h590l-6 -297h-1020v221q57 57 152 148.5t146 142t122.5 124t110 122.5t77.5 107t55.5 108.5t16.5 97.5q0 84 -59 133t-183 49 q-180 0 -371 -135z" />
<glyph unicode="3" d="M135 1395q93 72 222.5 115.5t267.5 43.5q255 0 397.5 -112.5t142.5 -311.5q0 -227 -211 -325v-4q246 -89 246 -340q0 -227 -148.5 -353t-447.5 -126q-268 0 -467 114l66 266q180 -100 391 -100q138 0 208 55.5t70 155.5q0 50 -18.5 85t-63 63t-125.5 41.5t-200 13.5v239 q150 0 237 23.5t118.5 63.5t31.5 104q0 76 -62 117t-186 41q-214 0 -391 -134z" />
<glyph unicode="4" d="M76 504l616 1032h402v-963h157l-8 -282h-149v-291h-312v291h-678zM436 573h359l12 488l8 166l-4 2z" />
<glyph unicode="5" d="M152 96l59 266q102 -52 188 -76t193 -24q147 0 208.5 58t61.5 182q0 106 -63.5 153t-200.5 47q-173 0 -311 -53l-117 127l61 760h879l10 -297h-622l-23 -285q115 23 221 23q241 0 369.5 -113t128.5 -334q0 -264 -139.5 -406t-429.5 -142q-282 0 -473 114z" />
<glyph unicode="6" d="M92 733q0 403 172.5 612t505.5 209q209 0 356 -57l-22 -287q-140 50 -293 50q-185 0 -277 -83t-114 -259l4 -5q140 86 307 86q486 0 486 -460q0 -281 -140 -419t-403 -138q-144 0 -249.5 40.5t-181.5 128.5t-113.5 233t-37.5 349zM432 649q3 -219 57 -302t183 -83 q108 0 162.5 68t54.5 213q0 102 -52.5 151t-168.5 49q-60 0 -131 -27.5t-105 -68.5z" />
<glyph unicode="7" d="M100 1214l15 320h1102v-285l-576 -1249h-379l623 1214h-785z" />
<glyph unicode="8" d="M90 451q0 105 55 198t156 154q-156 122 -156 342q0 195 127 302t387 107t385 -106.5t125 -304.5q0 -202 -165 -328q103 -55 161 -141t58 -225q0 -232 -142 -349.5t-422 -117.5q-569 0 -569 469zM412 449q0 -109 60.5 -157t195.5 -48q231 0 231 180q0 29 -9 54t-21.5 43.5 t-39.5 37.5t-48.5 31.5t-63.5 29.5t-69 26.5t-81 27.5q-155 -93 -155 -225zM457 1128q0 -38 15.5 -69t38 -51.5t64 -40t75 -31t89.5 -27.5q133 83 133 207q0 87 -52 129.5t-163 42.5q-103 0 -151.5 -39t-48.5 -121z" />
<glyph unicode="9" d="M90 1040q0 243 136 378.5t409 135.5q279 0 428 -182t149 -543q0 -443 -160 -645t-489 -202q-124 0 -213 16.5t-176 54.5l47 275q151 -62 309 -62q176 0 258.5 90t100.5 289l-4 4q-122 -80 -307 -80q-241 0 -364.5 126t-123.5 345zM410 1053q0 -110 55 -164.5t176 -54.5 q169 0 240 102q-1 182 -65.5 259t-186.5 77q-219 0 -219 -219z" />
<glyph unicode=":" horiz-adv-x="550" d="M92 154q0 176 184 176q183 0 183 -176q0 -179 -183 -179q-97 0 -140.5 41.5t-43.5 137.5zM92 991q0 176 184 176q183 0 183 -176q0 -178 -183 -178q-98 0 -141 41t-43 137z" />
<glyph unicode=";" horiz-adv-x="555" d="M96 991q0 176 185 176q182 0 182 -176q0 -178 -182 -178q-98 0 -141.5 41t-43.5 137zM100 141q0 83 42.5 133t133.5 50q92 0 137.5 -50.5t45.5 -142.5q0 -78 -58.5 -207t-128.5 -221l-114 29l53 248q-45 21 -78 64.5t-33 96.5z" />
<glyph unicode="&#x3c;" horiz-adv-x="1232" d="M176 598v160l879 469l2 -316l-350 -163l-150 -66v-6l150 -68l350 -168v-303z" />
<glyph unicode="=" horiz-adv-x="1232" d="M152 338v246h927v-246h-927zM152 756v245h927v-245h-927z" />
<glyph unicode="&#x3e;" horiz-adv-x="1232" d="M176 137v303l352 166l152 68v6l-152 65l-352 166v316l881 -469v-160z" />
<glyph unicode="?" horiz-adv-x="1040" d="M39 1405q80 68 204.5 109.5t260.5 41.5q234 0 355.5 -103t121.5 -286q0 -308 -348 -491l-12 -227h-250l-17 346q151 80 226 153t75 166q0 72 -51 110t-145 38q-179 0 -305 -113zM317 135q0 162 179 162q178 0 178 -162q0 -160 -178 -160q-94 0 -136.5 37t-42.5 123z" />
<glyph unicode="@" horiz-adv-x="1826" d="M78 707q0 151 37 289t111.5 255t180 203.5t251 135t315.5 48.5q234 0 411.5 -103t271 -284t93.5 -413q0 -163 -37 -287.5t-100 -197t-139.5 -108.5t-163.5 -36q-190 0 -260 143q-112 -143 -297 -143q-131 0 -213 100t-82 289q0 161 60.5 301.5t168.5 225.5t238 85 q118 0 188 -82l33 70l170 -12l-90 -551q-6 -38 -6 -76q0 -141 116 -141q104 0 168 103.5t64 316.5q0 180 -65 318t-201.5 220t-329.5 82q-140 0 -256.5 -38t-199 -106t-139.5 -162t-84.5 -206t-27.5 -239q0 -133 26.5 -247.5t83 -210t139 -162.5t200 -104.5t260.5 -37.5 q112 0 214 19.5t178.5 53t128.5 65t95 67.5l70 -162q-116 -96 -292.5 -157.5t-395.5 -61.5q-419 0 -656 247t-237 691zM715 598q0 -76 27.5 -118t82.5 -42q59 0 104 56.5t58 148.5l45 297q-24 49 -92 49q-95 0 -160 -119t-65 -272z" />
<glyph unicode="A" horiz-adv-x="1503" d="M12 0l531 1536h411l537 -1536h-385l-86 299h-557l-86 -299h-365zM547 588h391l-147 526l-41 162h-7l-43 -162z" />
<glyph unicode="B" horiz-adv-x="1415" d="M145 0v1536h625q246 0 374 -103.5t128 -289.5q0 -125 -54.5 -207.5t-150.5 -122.5v-4q260 -72 260 -363q0 -214 -133.5 -330t-415.5 -116h-633zM477 283h305q106 0 152.5 42t46.5 148q0 97 -47.5 139.5t-159.5 42.5h-297v-372zM479 911h287q93 0 134.5 40t41.5 130 t-43 127t-141 37h-279v-334z" />
<glyph unicode="C" horiz-adv-x="1222" d="M88 778q0 390 174.5 587.5t538.5 197.5q89 0 188.5 -18.5t167.5 -45.5l-35 -297q-132 51 -301 51q-107 0 -176 -23t-113.5 -79.5t-62.5 -146t-18 -228.5q0 -117 12.5 -200t38.5 -142t71.5 -93t106.5 -49.5t147 -15.5q160 0 299 60l35 -281q-77 -38 -180.5 -61t-202.5 -23 q-350 0 -520 198t-170 609z" />
<glyph unicode="D" horiz-adv-x="1499" d="M145 0v1536h576q364 0 527 -181.5t163 -580.5q0 -207 -42.5 -355t-130 -240.5t-214 -135.5t-299.5 -43h-580zM492 307h227q75 0 125.5 11t92 40.5t65 83t35.5 135t12 199.5q0 111 -11.5 187.5t-34.5 128.5t-64 81.5t-93.5 41.5t-128.5 12h-225v-920z" />
<glyph unicode="E" horiz-adv-x="1267" d="M145 0v1536h1014l6 -305h-673v-305h567v-275h-567v-350h706l-8 -301h-1045z" />
<glyph unicode="F" horiz-adv-x="1212" d="M147 0v1536h1012l6 -311h-673v-332h561l-4 -295h-557v-598h-345z" />
<glyph unicode="G" horiz-adv-x="1382" d="M88 766q0 407 178 602t563 195q234 0 424 -70l-32 -299q-175 66 -373 66q-117 0 -190.5 -23t-121 -80.5t-66.5 -149.5t-19 -237q0 -193 34.5 -298t110 -148t213.5 -43q94 0 164 20v524h305v-768q-86 -40 -210.5 -63t-250.5 -23q-195 0 -334.5 49.5t-226.5 151 t-127.5 247.5t-40.5 347z" />
<glyph unicode="H" horiz-adv-x="1519" d="M145 0v1536h347v-596h536v596h344v-1536h-344v629h-536v-629h-347z" />
<glyph unicode="I" horiz-adv-x="688" d="M168 0v1536h352v-1536h-352z" />
<glyph unicode="J" horiz-adv-x="1126" d="M66 37l18 291q90 -54 233 -54q156 0 234 71t78 224v967h352v-973q0 -311 -156.5 -451.5t-453.5 -140.5q-179 0 -305 66z" />
<glyph unicode="K" horiz-adv-x="1474" d="M145 0v1536h347v-608h165l371 608h395l-458 -729l483 -807h-416l-379 647h-161v-647h-347z" />
<glyph unicode="L" horiz-adv-x="1163" d="M145 0v1536h349v-1225h632l-8 -311h-973z" />
<glyph unicode="M" horiz-adv-x="1888" d="M145 0v1536h381l357 -897l57 -154h6l58 154l358 897h381v-1536h-316v782l5 166l-7 2l-57 -155l-315 -795h-230l-313 793l-57 155l-4 -2l2 -166v-780h-306z" />
<glyph unicode="N" horiz-adv-x="1529" d="M145 0v1536h295l547 -793l92 -137l4 2l-4 164v764h305v-1536h-241l-596 838l-92 137l-4 -2l2 -166v-807h-308z" />
<glyph unicode="O" horiz-adv-x="1531" d="M88 768q0 413 160.5 603t517.5 190q358 0 517 -189.5t159 -603.5q0 -420 -158.5 -608.5t-517.5 -188.5q-353 0 -515.5 192.5t-162.5 604.5zM451 768q0 -147 16 -240.5t55.5 -149t97 -76.5t148.5 -21q120 0 185.5 41.5t96.5 146.5t31 299q0 148 -15.5 240t-54 147 t-96 75.5t-149.5 20.5q-73 0 -123 -13t-88.5 -44.5t-60 -87.5t-32.5 -138t-11 -200z" />
<glyph unicode="P" horiz-adv-x="1359" d="M145 0v1536h551q316 0 458 -127.5t142 -398.5q0 -251 -144 -380.5t-456 -129.5h-204v-500h-347zM492 776h204q134 0 189 48.5t55 187.5q0 136 -54 185.5t-190 49.5h-204v-471z" />
<glyph unicode="Q" horiz-adv-x="1531" d="M88 768q0 413 160.5 603t517.5 190q358 0 517 -189.5t159 -603.5q0 -329 -96 -513t-306 -245l287 -223l-389 -98l-215 282q-330 12 -482.5 205t-152.5 592zM451 768q0 -147 16 -240.5t55.5 -149t97 -76.5t148.5 -21q120 0 185.5 41.5t96.5 146.5t31 299q0 148 -15.5 240 t-54 147t-96 75.5t-149.5 20.5q-73 0 -123 -13t-88.5 -44.5t-60 -87.5t-32.5 -138t-11 -200z" />
<glyph unicode="R" horiz-adv-x="1392" d="M145 0v1536h564q288 0 429.5 -116.5t141.5 -360.5q0 -162 -67 -271t-191 -147l358 -641h-403l-268 573h-217v-573h-347zM492 831h213q118 0 166.5 45.5t48.5 167.5q0 116 -47 160.5t-162 44.5h-219v-418z" />
<glyph unicode="S" horiz-adv-x="1183" d="M80 86l45 297q212 -113 426 -113q242 0 242 168q0 38 -24 68.5t-65 52.5t-94 41.5t-112 40.5t-117.5 46t-111.5 61t-94 81.5t-65 113t-24 149.5q0 100 33 184t99 149t174.5 101.5t250.5 36.5q236 0 430 -80l-43 -291q-201 65 -371 65q-133 0 -187 -39.5t-54 -107.5 q0 -38 24 -68t65 -51t94 -40t111.5 -39.5t117 -44.5t111.5 -60t94 -81.5t65 -113.5t24 -151q0 -228 -151 -359t-418 -131q-263 0 -475 115z" />
<glyph unicode="T" horiz-adv-x="1222" d="M25 1225l8 311h1157l8 -311h-414v-1225h-348v1225h-411z" />
<glyph unicode="U" horiz-adv-x="1486" d="M125 549v987h344v-983q0 -140 66 -204t210 -64q145 0 210 63.5t65 204.5v983h342v-987q0 -578 -617 -578q-306 0 -463 144.5t-157 433.5z" />
<glyph unicode="V" horiz-adv-x="1454" d="M12 1536h381l297 -1038l43 -160h6l41 160l303 1038h359l-522 -1536h-385z" />
<glyph unicode="W" horiz-adv-x="2121" d="M51 1536h359l192 -1040l27 -164h6l29 162l217 1042h374l218 -1032l30 -162h6l27 164l193 1030h342l-363 -1536h-414l-202 1028l-29 164h-6l-29 -166l-201 -1026h-413z" />
<glyph unicode="X" horiz-adv-x="1458" d="M39 0l436 795l-426 741h410l198 -383l74 -147h6l72 147l199 383h393l-428 -733l446 -803h-391l-223 438l-70 150h-6l-72 -152l-219 -436h-399z" />
<glyph unicode="Y" horiz-adv-x="1429" d="M12 1536h389l258 -582l64 -151h6l62 153l247 580h379l-522 -1047v-489h-352v489z" />
<glyph unicode="Z" horiz-adv-x="1265" d="M72 0v225l596 865l94 131l-2 4h-672l10 311h1082v-252l-582 -840l-94 -129l2 -6h680l-6 -309h-1108z" />
<glyph unicode="[" horiz-adv-x="720" d="M160 -268v1876h555v-224h-269v-1435h269v-217h-555z" />
<glyph unicode="\" horiz-adv-x="772" d="M-29 1606h260l603 -1854h-259z" />
<glyph unicode="]" horiz-adv-x="720" d="M6 -51h268v1435h-268v224h555v-1876h-555v217z" />
<glyph unicode="^" d="M106 950l443 697h219l436 -697h-250l-297 463l-297 -463h-254z" />
<glyph unicode="_" horiz-adv-x="851" d="M31 -78h794v-192h-794v192z" />
<glyph unicode="`" horiz-adv-x="829" d="M160 1640h362l123 -297h-239z" />
<glyph unicode="a" horiz-adv-x="1189" d="M80 391q0 175 117 281t325 106q122 0 238 -35v72q0 95 -55 138.5t-181 43.5q-100 0 -176.5 -15.5t-165.5 -51.5l-26 254q193 82 426 82q137 0 231.5 -29.5t152.5 -92.5t83.5 -154t25.5 -222v-768h-244l-24 119l-6 2q-57 -68 -144 -104.5t-192 -36.5q-182 0 -283.5 103.5 t-101.5 307.5zM377 395q0 -164 176 -164q83 0 145 43.5t62 102.5v155q-70 27 -176 27q-207 0 -207 -164z" />
<glyph unicode="b" horiz-adv-x="1300" d="M137 0v1595l318 15v-289l-4 -164l6 -4q123 111 305 111q467 0 467 -639q0 -650 -506 -650q-203 0 -330 127l-41 -102h-215zM455 338q71 -107 217 -107q58 0 97 15.5t70.5 56.5t46.5 119t15 196q0 114 -14 187.5t-45 112.5t-71 53t-101 14q-69 0 -125 -27t-90 -77v-543z " />
<glyph unicode="c" horiz-adv-x="1009" d="M72 618q0 316 138 480t429 164q163 0 299 -54l-18 -270q-107 39 -211 39q-172 0 -240 -80.5t-68 -278.5q0 -194 76 -282t225 -88q126 0 226 47l22 -248q-118 -72 -317 -72q-561 0 -561 643z" />
<glyph unicode="d" horiz-adv-x="1296" d="M72 627q0 310 118.5 474.5t352.5 164.5q178 0 303 -113l4 4l-4 164v272l317 17v-1610h-248l-30 106l-6 3q-115 -134 -332 -134q-240 0 -357.5 160t-117.5 492zM399 612q0 -218 50.5 -298.5t185.5 -80.5q81 0 133.5 30.5t77.5 74.5v549q-30 43 -85 68.5t-124 25.5 q-132 0 -185 -81t-53 -288z" />
<glyph unicode="e" horiz-adv-x="1200" d="M72 637q0 303 136 465t410 162q244 0 378 -145t134 -433q0 -92 -8 -149h-723q12 -153 90 -219t240 -66q174 0 332 61l35 -256q-177 -80 -406 -80q-317 0 -467.5 165t-150.5 495zM393 748h447q-3 132 -59 191.5t-160 59.5q-115 0 -166 -57.5t-62 -193.5z" />
<glyph unicode="f" horiz-adv-x="829" d="M45 1006v235h156v53q0 149 107 244.5t319 95.5q114 0 200 -26l-18 -205q-55 12 -119 12q-172 0 -172 -129v-45h264v-235h-264v-1006h-317v1006h-156z" />
<glyph unicode="g" horiz-adv-x="1202" d="M92 -10q0 116 96 200q-94 69 -94 183q0 64 38 120.5t112 92.5q-135 97 -135 293q0 179 114.5 282t360.5 103q192 0 309 -68l211 68l65 -152l-131 -102q19 -59 19 -131q0 -186 -113 -282.5t-358 -96.5q-82 0 -156 12q-43 -22 -43 -59q0 -24 21 -39.5t61 -18.5l295 -16 q212 -12 306.5 -90.5t94.5 -225.5q0 -401 -569 -401q-255 0 -379.5 89.5t-124.5 238.5zM362 31q0 -66 54 -97.5t174 -31.5q165 0 228 28.5t63 85.5q0 45 -36 66.5t-136 28.5l-295 20q-52 -49 -52 -100zM422 870q0 -85 40.5 -118t117.5 -33q99 0 135.5 33.5t36.5 119.5 q0 84 -37.5 118t-126.5 34q-91 0 -128.5 -35.5t-37.5 -118.5z" />
<glyph unicode="h" horiz-adv-x="1296" d="M137 0v1593l318 17v-283l-4 -164l6 -4q126 107 309 107q196 0 306 -125.5t110 -349.5v-791h-318v791q0 192 -198 192q-67 0 -124 -26.5t-87 -67.5v-889h-318z" />
<glyph unicode="i" horiz-adv-x="653" d="M145 1509q0 138 183 138q180 0 180 -138q0 -68 -43.5 -101.5t-136.5 -33.5q-95 0 -139 31t-44 104zM164 0v1233l325 14v-1247h-325z" />
<glyph unicode="j" horiz-adv-x="653" d="M-35 -309l15 223q41 -12 75 -12q54 0 85.5 28.5t31.5 87.5v1215l317 14v-1237q0 -96 -27.5 -166t-78 -108.5t-112 -56t-138.5 -17.5q-83 0 -168 29zM145 1511q0 138 181 138q180 0 180 -138q0 -70 -43.5 -103.5t-136.5 -33.5q-94 0 -137.5 31.5t-43.5 105.5z" />
<glyph unicode="k" horiz-adv-x="1263" d="M137 0v1595l318 15v-817h161l258 448h353l-338 -563l350 -678h-358l-265 535h-161v-535h-318z" />
<glyph unicode="l" horiz-adv-x="624" d="M152 0v1595l321 15v-1610h-321z" />
<glyph unicode="m" horiz-adv-x="1931" d="M127 0v1233l229 16l52 -116q65 62 147 96.5t168 34.5q231 0 328 -166q121 166 348 166q190 0 304 -120t114 -345v-799h-318v793q0 95 -48 142.5t-138 47.5q-83 0 -133 -46t-50 -134v-803h-317v803q0 180 -180 180q-57 0 -108 -25.5t-79 -68.5v-889h-319z" />
<glyph unicode="n" horiz-adv-x="1288" d="M127 0v1235l229 14l47 -106q141 123 342 123q200 0 314.5 -123.5t114.5 -351.5v-791h-318v791q0 101 -50 146.5t-151 45.5q-61 0 -119 -25.5t-90 -68.5v-889h-319z" />
<glyph unicode="o" horiz-adv-x="1277" d="M72 616q0 340 136.5 494t432.5 154q297 0 432 -153.5t135 -494.5t-134.5 -493t-432.5 -152q-297 0 -433 152t-136 493zM401 616q0 -153 24.5 -236.5t75 -116t140.5 -32.5t140 33t74 116.5t24 235.5t-24 235.5t-74 116.5t-140 33q-91 0 -141.5 -33.5t-74.5 -116.5 t-24 -235z" />
<glyph unicode="p" horiz-adv-x="1290" d="M127 -315v1548l223 14l62 -108q64 60 151.5 92.5t184.5 32.5q117 0 203 -33.5t147.5 -108.5t92 -199t30.5 -300q0 -318 -128.5 -480.5t-353.5 -162.5q-185 0 -288 100l-7 -2l5 -166v-227h-322zM449 348q70 -106 206 -106q45 0 79 9.5t64.5 35t50 67.5t31 110t11.5 161 q0 141 -25 219t-72.5 107.5t-131.5 29.5q-142 0 -213 -100v-533z" />
<glyph unicode="q" horiz-adv-x="1292" d="M72 616q0 320 123.5 484t369.5 164q222 0 355 -136l36 113l205 -2v-1554l-317 -2v219l4 166l-4 2q-114 -88 -287 -88q-227 0 -356 156t-129 478zM401 616q0 -204 54.5 -286t183.5 -82q81 0 136.5 31.5t68.5 74.5v531q-26 41 -82 67.5t-127 26.5q-91 0 -140 -30.5 t-71.5 -108t-22.5 -224.5z" />
<glyph unicode="r" horiz-adv-x="937" d="M127 0v1233l254 12l29 -207h6q58 111 145.5 167.5t194.5 56.5q72 0 135 -19l-21 -313q-65 20 -135 20q-128 0 -208.5 -87.5t-80.5 -239.5v-623h-319z" />
<glyph unicode="s" horiz-adv-x="1017" d="M82 879q0 174 120 278.5t351 104.5q188 0 352 -68l-26 -260q-72 30 -164.5 46.5t-167.5 16.5q-77 0 -119.5 -28t-42.5 -76q0 -38 31.5 -64.5t81.5 -43.5t110 -34t120.5 -43.5t110.5 -63.5t81.5 -102.5t31.5 -152.5q0 -195 -115 -304.5t-358 -109.5q-232 0 -389 86l33 263 q73 -42 171 -65t183 -23q92 0 136 33t44 91q0 32 -19.5 56t-53 40t-76.5 30t-90.5 29.5t-95.5 34t-91 46.5t-76.5 65t-53 92.5t-19.5 125.5z" />
<glyph unicode="t" horiz-adv-x="825" d="M45 1004v237h154l53 281l250 22v-303h276v-237h-276v-635q0 -71 36.5 -104.5t110.5 -33.5q56 0 99 15l18 -232q-81 -34 -213 -34q-183 0 -276 99t-93 279v646h-139z" />
<glyph unicode="u" horiz-adv-x="1273" d="M115 438v803h317v-797q0 -186 205 -186q104 0 154.5 45.5t50.5 140.5v797h317v-803q0 -461 -522 -461q-261 0 -391.5 118.5t-130.5 342.5z" />
<glyph unicode="v" horiz-adv-x="1335" d="M33 1241h348l237 -795l46 -159h6l43 159l241 795h349l-451 -1241h-369z" />
<glyph unicode="w" horiz-adv-x="1822" d="M61 1241h320l149 -809l29 -164h6l27 164l160 809h331l166 -813l31 -162h6l25 164l139 811h311l-278 -1241h-389l-140 741l-26 166h-6l-29 -166l-145 -741h-390z" />
<glyph unicode="x" horiz-adv-x="1277" d="M45 0l371 627l-365 614h369l155 -313l70 -150h6l68 150l153 313h353l-348 -606l358 -635h-369l-166 330l-69 149h-6l-70 -151l-160 -328h-350z" />
<glyph unicode="y" horiz-adv-x="1337" d="M33 1241h362l271 -758l53 -155h6l39 159l203 754h338l-424 -1225q-65 -187 -177.5 -273.5t-275.5 -86.5q-123 0 -211 39l25 225q65 -26 129 -26q70 0 115.5 25.5t74.5 92.5l6 17z" />
<glyph unicode="z" horiz-adv-x="1101" d="M86 0v223l455 621l98 129l-2 4h-535l11 264h893v-221l-455 -623l-98 -127l2 -6h569l-8 -264h-930z" />
<glyph unicode="{" horiz-adv-x="790" d="M160 608v131q57 12 92 53t35 101q0 57 -15.5 181.5t-15.5 189.5q0 116 45 193.5t152 121t278 43.5h53v-238h-67q-88 0 -132 -44.5t-44 -116.5q0 -56 12 -158.5t12 -167.5q0 -152 -116 -223q116 -74 116 -223q0 -65 -12 -168t-12 -158q0 -72 44 -117t132 -45h67v-237h-53 q-171 0 -278 43.5t-152 121t-45 193.5q0 65 15.5 189.5t15.5 181.5q0 60 -35 100.5t-92 52.5z" />
<glyph unicode="|" horiz-adv-x="593" d="M174 -365v2018h246v-2018h-246z" />
<glyph unicode="}" horiz-adv-x="790" d="M6 -37h68q88 0 132 45t44 117q0 55 -11.5 158t-11.5 168q0 150 115 223q-115 70 -115 223q0 65 11.5 167.5t11.5 158.5q0 72 -44 116.5t-132 44.5h-68v238h53q254 0 365 -90.5t111 -267.5q0 -65 -15.5 -189.5t-15.5 -181.5q0 -60 35.5 -101t93.5 -53v-131 q-58 -12 -93.5 -52.5t-35.5 -100.5q0 -57 15.5 -181.5t15.5 -189.5q0 -177 -111 -267.5t-365 -90.5h-53v237z" />
<glyph unicode="~" d="M147 1206q18 391 299 391q54 0 115 -21t107 -45.5t99.5 -45.5t94.5 -21q50 0 80.5 30t40.5 75h182q-9 -193 -86.5 -291t-212.5 -98q-54 0 -115 21t-105 45.5t-96.5 45.5t-92.5 21q-50 0 -83 -29.5t-46 -75.5z" />
<glyph unicode="&#xa1;" horiz-adv-x="618" d="M127 1192q0 158 178 158q94 0 136 -36.5t42 -121.5q0 -162 -178 -162t-178 162zM141 -272l39 1171h260l37 -1171h-336z" />
<glyph unicode="&#xa2;" d="M184 618q0 283 109.5 443t341.5 192l18 242h246l-18 -244q99 -16 170 -43l-19 -270q-107 39 -211 39q-172 0 -239.5 -80.5t-67.5 -278.5q0 -194 76 -282t225 -88q125 0 225 47l23 -248q-87 -55 -242 -67l-14 -242h-246l19 256q-396 84 -396 624z" />
<glyph unicode="&#xa3;" d="M119 285q87 18 139.5 87.5t52.5 157.5q0 39 -8 105h-156l-14 250h98q-45 130 -45 223q0 75 19 140t63.5 123.5t111.5 100.5t169 66.5t231 24.5q205 0 373 -66l-39 -285q-140 52 -295 52q-152 0 -222.5 -53.5t-70.5 -145.5q0 -72 33 -180h496v-250h-434q6 -43 6 -88 q0 -184 -140 -268l5 -7q160 41 372 41q160 0 357 -24q-1 -3 -8 -150t-9 -153q-264 28 -493 28q-311 0 -576 -24z" />
<glyph unicode="&#xa4;" d="M166 430l133 137q-39 80 -39 174q0 108 47 191l-139 145l160 172l149 -151q84 43 176 43q93 0 181 -43l149 151l162 -172l-144 -147q48 -91 48 -189q0 -91 -39 -174l133 -137l-162 -172l-131 133q-88 -51 -197 -51q-106 0 -194 51l-131 -133zM463 745q0 -76 55 -129 t135 -53t135.5 53t55.5 129q0 75 -56 129t-135 54t-134.5 -54t-55.5 -129z" />
<glyph unicode="&#xa5;" d="M39 1536h377l194 -657l45 -160h7l43 160l194 657h371l-348 -801h184v-188h-262v-80h262v-191h-262v-276h-367v276h-256v191h256v80h-256v188h176z" />
<glyph unicode="&#xa6;" horiz-adv-x="593" d="M174 -338v883h246v-883h-246zM174 764v889h246v-889h-246z" />
<glyph unicode="&#xa7;" horiz-adv-x="1165" d="M92 674q0 90 42.5 171t127.5 134q-137 108 -137 248q0 178 128 273t368 95q105 0 218 -22t189 -62l-22 -239q-187 74 -367 74q-90 0 -137 -27.5t-47 -77.5q0 -36 35.5 -67t92.5 -57.5t126 -55t137.5 -67.5t125.5 -87t92.5 -120.5t35.5 -161.5q0 -90 -43.5 -172 t-128.5 -136q139 -107 139 -245q0 -179 -127.5 -274t-368.5 -95q-105 0 -216.5 22t-188.5 62l22 240q184 -74 365 -74q90 0 137 27.5t47 78.5q0 35 -35.5 66t-92.5 57t-126 55t-137.5 68t-125.5 87t-92.5 120.5t-35.5 161.5zM399 707q0 -30 16.5 -59t36.5 -49t64 -47.5 t70.5 -41t85.5 -43.5l20 -10q101 47 101 135q0 19 -5 36t-18.5 34.5t-24 30t-36.5 30t-39 26.5t-48 27.5t-48 25.5t-54 27l-20 11q-101 -46 -101 -133z" />
<glyph unicode="&#xa8;" horiz-adv-x="829" d="M96 1511q0 136 133 136q136 0 136 -136q0 -133 -136 -133q-69 0 -101 31t-32 102zM469 1511q0 136 135 136q133 0 133 -136q0 -67 -32 -100t-101 -33t-102 31t-33 102z" />
<glyph unicode="&#xa9;" horiz-adv-x="1783" d="M90 774q0 163 64 311t171.5 255.5t256 171t311.5 63.5q217 0 401.5 -107.5t292 -292t107.5 -401.5t-107.5 -401.5t-292 -292t-401.5 -107.5q-163 0 -311.5 63.5t-256 171t-171.5 255.5t-64 311zM250 774q0 -172 85 -319t233.5 -233.5t324.5 -86.5q132 0 251.5 50.5 t205.5 136.5t137 204t51 248q0 170 -86 315t-234.5 230.5t-324.5 85.5t-324.5 -85.5t-233.5 -230.5t-85 -315zM379 772q0 102 36.5 196t102.5 166t167 115t220 43q199 0 334 -112l-22 -224q-47 25 -111.5 41.5t-120.5 16.5q-137 0 -212 -66t-75 -174q0 -114 76.5 -179 t216.5 -65q64 0 128.5 17.5t107.5 42.5l28 -215q-61 -55 -157 -94t-195 -39q-151 0 -271 70.5t-186.5 191.5t-66.5 268z" />
<glyph unicode="&#xaa;" horiz-adv-x="909" d="M66 1004q0 138 88.5 223.5t240.5 85.5q90 0 160 -25v47q0 62 -38.5 90.5t-131.5 28.5q-122 0 -242 -49l-20 221q149 62 319 62q208 0 294.5 -94t86.5 -302v-602h-209l-20 84l-6 2q-81 -100 -234 -100q-135 0 -211.5 83t-76.5 245zM319 1008q0 -111 109 -111 q52 0 89.5 27.5t37.5 68.5v111q-40 16 -109 16q-65 0 -96 -27t-31 -85z" />
<glyph unicode="&#xab;" horiz-adv-x="1333" d="M45 645v23l641 442v-246l-328 -209l328 -206v-246zM563 645v23l641 442v-246l-327 -209l327 -206v-246z" />
<glyph unicode="&#xac;" d="M197 555v274h919v-579h-258v305h-661z" />
<glyph unicode="&#xad;" horiz-adv-x="798" d="M106 586v229h586v-229h-586z" />
<glyph unicode="&#xae;" horiz-adv-x="901" d="M59 1311q0 166 116 282.5t280 116.5q160 0 274.5 -117t114.5 -282q0 -161 -114.5 -277t-274.5 -116q-164 0 -280 115.5t-116 277.5zM147 1313q0 -125 90 -215t216 -90t215.5 90t89.5 215q0 126 -89.5 215.5t-215.5 89.5t-216 -89.5t-90 -215.5zM274 1112v418h195 q180 0 180 -141q0 -38 -17 -69.5t-50 -45.5l73 -162h-137l-55 143h-57v-143h-132zM406 1339h69q24 1 36.5 13t12.5 30q0 41 -53 41h-65v-84z" />
<glyph unicode="&#xaf;" horiz-adv-x="829" d="M90 1401v196h655v-196h-655z" />
<glyph unicode="&#xb0;" horiz-adv-x="704" d="M66 1382q0 122 83 206.5t203 84.5t203.5 -84t83.5 -207q0 -120 -83.5 -205t-203.5 -85t-203 85t-83 205zM209 1382q0 -59 41 -99t102 -40q62 0 104 39.5t42 99.5q0 61 -42 101.5t-104 40.5t-102.5 -40.5t-40.5 -101.5z" />
<glyph unicode="&#xb1;" d="M180 70v237h948v-237h-948zM180 680v270h334v316h281v-316h335v-270h-335v-303h-281v303h-334z" />
<glyph unicode="&#xb2;" horiz-adv-x="763" d="M70 1737q130 84 313 84q156 0 235.5 -68t79.5 -182q0 -45 -16.5 -86.5t-41.5 -75t-71 -73t-88 -69.5t-110 -75v-6h325l-4 -182h-610v141q43 38 104 89t95 79.5t74.5 66.5t61 63.5t34.5 54t14 54.5q0 82 -125 82q-102 0 -219 -71z" />
<glyph unicode="&#xb3;" horiz-adv-x="763" d="M66 1737q122 84 296 84q154 0 240 -61t86 -169q0 -116 -117 -168v-4q136 -46 136 -174q0 -252 -355 -252q-168 0 -284 68l47 164q117 -60 237 -60q68 0 104 24t36 66q0 30 -16.5 48t-67.5 29t-142 11v150q125 0 170 20t45 62q0 67 -129 67q-135 0 -235 -67z" />
<glyph unicode="&#xb4;" horiz-adv-x="829" d="M291 1343l121 297h364l-246 -297h-239z" />
<glyph unicode="&#xb5;" horiz-adv-x="1286" d="M127 -330v1571h319v-797q0 -84 57 -133t152 -49q92 0 146.5 43t54.5 125v811h315v-1233l-225 -18l-39 88q-96 -96 -241 -96q-174 0 -260 135l-5 -2q12 -221 33 -420z" />
<glyph unicode="&#xb6;" horiz-adv-x="1433" d="M55 1253q0 126 88 204.5t242 78.5h975l-14 -258h-152v-1606h-279v1606h-266v-1606h-276v1276q-144 6 -231 84t-87 221z" />
<glyph unicode="&#xb7;" horiz-adv-x="606" d="M119 709q0 176 184 176q182 0 182 -176q0 -179 -182 -179q-97 0 -140.5 41.5t-43.5 137.5z" />
<glyph unicode="&#xb8;" horiz-adv-x="829" d="M217 -387l145 414l211 2l-73 -416h-283z" />
<glyph unicode="&#xb9;" horiz-adv-x="583" d="M70 1647l262 165h139v-808h-221v552l-162 -90z" />
<glyph unicode="&#xba;" horiz-adv-x="997" d="M74 1182q0 271 102 389.5t324 118.5q224 0 324 -118t100 -390q0 -271 -100 -387.5t-324 -116.5q-223 0 -324.5 117t-101.5 387zM352 1182q0 -114 15.5 -174.5t46 -82.5t86.5 -22t86 22.5t45.5 83t15.5 173.5q0 115 -15.5 176t-45.5 82.5t-86 21.5q-57 0 -87.5 -22 t-45.5 -82.5t-15 -175.5z" />
<glyph unicode="&#xbb;" horiz-adv-x="1333" d="M115 203v246l325 206l-325 209v246l639 -442v-23zM633 203v246l325 206l-325 209v246l639 -442v-23z" />
<glyph unicode="&#xbc;" horiz-adv-x="1828" d="M201 1372l262 166h139v-809h-221v553l-162 -90zM305 0l1018 1536h225l-1020 -1536h-223zM1006 268l372 539h267v-488h84l-7 -176h-77v-143h-207v143h-414zM1257 326l3 -7h186l4 132l10 163h-6l-104 -157z" />
<glyph unicode="&#xbd;" horiz-adv-x="1828" d="M207 1372l262 166h139v-809h-221v553l-162 -90zM272 0l1018 1536h226l-1020 -1536h-224zM1096 733q130 84 313 84q156 0 235.5 -68t79.5 -182q0 -54 -22 -102.5t-70.5 -96.5t-99 -86t-135.5 -94v-6h325l-4 -182h-610v143q41 35 103.5 87.5t95 80t74 66t61.5 63.5t34.5 54 t14.5 55q0 82 -125 82q-99 0 -219 -70z" />
<glyph unicode="&#xbe;" horiz-adv-x="1828" d="M106 1462q122 84 297 84q154 0 240 -61t86 -168q0 -116 -117 -168v-4q136 -46 136 -174q0 -122 -87.5 -188t-267.5 -66q-166 0 -284 69l47 164q115 -59 237 -59q68 0 103.5 24t35.5 66q0 30 -16.5 48t-67 29t-141.5 11v148q125 0 170 20.5t45 62.5q0 68 -129 68 q-134 0 -235 -68zM293 0l1018 1536h225l-1020 -1536h-223zM938 268l373 539h266v-488h84l-6 -176h-78v-143h-207v143h-414zM1190 326l2 -7h186l4 132l11 163h-7l-104 -157z" />
<glyph unicode="&#xbf;" horiz-adv-x="1001" d="M55 182q0 163 89 282.5t259 207.5l13 229h250l16 -346q-149 -80 -224 -154t-75 -168q0 -70 50.5 -107.5t144.5 -37.5q178 0 307 113l112 -256q-79 -68 -204 -110t-261 -42q-234 0 -355.5 103t-121.5 286zM362 1214q0 76 44.5 118t134.5 42q95 0 137.5 -37t42.5 -123 q0 -161 -180 -161q-179 0 -179 161z" />
<glyph unicode="&#xc0;" horiz-adv-x="1503" d="M12 0l531 1536h411l537 -1536h-385l-86 299h-557l-86 -299h-365zM389 1872h377l143 -246h-258zM547 588h391l-147 526l-41 162h-7l-43 -162z" />
<glyph unicode="&#xc1;" horiz-adv-x="1503" d="M12 0l531 1536h411l537 -1536h-385l-86 299h-557l-86 -299h-365zM547 588h391l-147 526l-41 162h-7l-43 -162zM586 1622l133 248h405l-284 -248h-254z" />
<glyph unicode="&#xc2;" horiz-adv-x="1503" d="M12 0l531 1536h411l537 -1536h-385l-86 299h-557l-86 -299h-365zM365 1622l210 248h338l220 -248h-279l-109 117l-106 -117h-274zM547 588h391l-147 526l-41 162h-7l-43 -162z" />
<glyph unicode="&#xc3;" horiz-adv-x="1503" d="M12 0l531 1536h411l537 -1536h-385l-86 299h-557l-86 -299h-365zM395 1630q5 111 61.5 178.5t151.5 67.5q59 0 116.5 -21t102.5 -42t72 -21q28 0 43 14t21 47l139 -2q-4 -112 -62.5 -178.5t-152.5 -66.5q-58 0 -113 21t-98 42t-70 21q-25 0 -42.5 -17t-22.5 -45zM547 588 h391l-147 526l-41 162h-7l-43 -162z" />
<glyph unicode="&#xc4;" horiz-adv-x="1503" d="M12 0l531 1536h411l537 -1536h-385l-86 299h-557l-86 -299h-365zM410 1747q0 129 135 129q131 0 131 -129q0 -125 -131 -125q-69 0 -102 29.5t-33 95.5zM547 588h391l-147 526l-41 162h-7l-43 -162zM817 1747q0 129 133 129t133 -129q0 -125 -133 -125q-69 0 -101 29.5 t-32 95.5z" />
<glyph unicode="&#xc5;" horiz-adv-x="1503" d="M12 0l516 1495q-51 48 -51 150q0 100 60.5 153t201.5 53q140 0 205.5 -54t65.5 -150q0 -94 -45 -142l526 -1505h-385l-86 299h-557l-86 -299h-365zM547 588h391l-147 526l-41 162h-7l-43 -162zM641 1634q0 -35 22.5 -51t84.5 -16q56 0 79 15.5t23 51.5q0 38 -22.5 56 t-79.5 18q-61 0 -84 -18t-23 -56z" />
<glyph unicode="&#xc6;" horiz-adv-x="2179" d="M39 0l827 1536h1213l6 -305h-678l18 -305h545v-275h-526l20 -350h645l-8 -301h-966l-19 303h-528l-142 -303h-407zM721 586h379l-31 551l-6 166l-6 2l-68 -152z" />
<glyph unicode="&#xc7;" horiz-adv-x="1222" d="M88 778q0 390 174.5 587.5t538.5 197.5q89 0 188.5 -18.5t167.5 -45.5l-35 -297q-132 51 -301 51q-107 0 -176 -23t-113.5 -79.5t-62.5 -146t-18 -228.5q0 -117 12.5 -200t38.5 -142t71.5 -93t106.5 -49.5t147 -15.5q160 0 299 60l35 -281q-122 -59 -284 -78l-64 -364 h-283l127 364q-288 32 -428.5 229.5t-140.5 571.5z" />
<glyph unicode="&#xc8;" horiz-adv-x="1267" d="M145 0v1536h1014l6 -305h-673v-305h567v-275h-567v-350h706l-8 -301h-1045zM313 1872h377l144 -246h-259z" />
<glyph unicode="&#xc9;" horiz-adv-x="1267" d="M145 0v1536h1014l6 -305h-673v-305h567v-275h-567v-350h706l-8 -301h-1045zM508 1622l133 248h406l-285 -248h-254z" />
<glyph unicode="&#xca;" horiz-adv-x="1267" d="M145 0v1536h1014l6 -305h-673v-305h567v-275h-567v-350h706l-8 -301h-1045zM287 1622l211 248h338l219 -248h-279l-108 117l-107 -117h-274z" />
<glyph unicode="&#xcb;" horiz-adv-x="1267" d="M145 0v1536h1014l6 -305h-673v-305h567v-275h-567v-350h706l-8 -301h-1045zM334 1747q0 129 135 129q131 0 131 -129q0 -125 -131 -125q-69 0 -102 29.5t-33 95.5zM741 1747q0 129 133 129q134 0 134 -129q0 -125 -134 -125q-69 0 -101 29.5t-32 95.5z" />
<glyph unicode="&#xcc;" horiz-adv-x="688" d="M-14 1872h376l144 -246h-258zM168 0v1536h352v-1536h-352z" />
<glyph unicode="&#xcd;" horiz-adv-x="688" d="M168 0v1536h352v-1536h-352zM182 1622l133 248h406l-285 -248h-254z" />
<glyph unicode="&#xce;" horiz-adv-x="688" d="M-39 1622l211 248h338l219 -248h-278l-109 117l-106 -117h-275zM168 0v1536h352v-1536h-352z" />
<glyph unicode="&#xcf;" horiz-adv-x="688" d="M6 1747q0 129 135 129q131 0 131 -129q0 -125 -131 -125q-69 0 -102 29.5t-33 95.5zM168 0v1536h352v-1536h-352zM414 1747q0 129 133 129t133 -129q0 -125 -133 -125q-69 0 -101 29.5t-32 95.5z" />
<glyph unicode="&#xd0;" horiz-adv-x="1519" d="M45 694v205h121v637h575q364 0 527.5 -181.5t163.5 -580.5q0 -408 -169 -591t-518 -183h-579v694h-121zM512 307h227q75 0 125.5 11t92 40.5t65 83t35.5 135t12 199.5q0 111 -11.5 187.5t-34.5 128.5t-64 81.5t-93.5 41.5t-128.5 12h-225v-328h170v-205h-170v-387z" />
<glyph unicode="&#xd1;" horiz-adv-x="1529" d="M145 0v1536h295l547 -793l92 -137l4 2l-4 164v764h305v-1536h-241l-596 838l-92 137l-4 -2l2 -166v-807h-308zM420 1630q5 111 61.5 178.5t151.5 67.5q59 0 116.5 -21t102.5 -42t72 -21q28 0 42.5 14t20.5 47l139 -2q-4 -112 -62.5 -178.5t-152.5 -66.5q-58 0 -113 21 t-97.5 42t-69.5 21q-25 0 -43.5 -17t-22.5 -45z" />
<glyph unicode="&#xd2;" horiz-adv-x="1531" d="M88 768q0 413 160.5 603t517.5 190q358 0 517 -189.5t159 -603.5q0 -420 -158.5 -608.5t-517.5 -188.5q-353 0 -515.5 192.5t-162.5 604.5zM434 1872h377l143 -246h-258zM451 768q0 -147 16 -240.5t55.5 -149t97 -76.5t148.5 -21q120 0 185.5 41.5t96.5 146.5t31 299 q0 148 -15.5 240t-54 147t-96 75.5t-149.5 20.5q-73 0 -123 -13t-88.5 -44.5t-60 -87.5t-32.5 -138t-11 -200z" />
<glyph unicode="&#xd3;" horiz-adv-x="1531" d="M88 768q0 413 160.5 603t517.5 190q358 0 517 -189.5t159 -603.5q0 -420 -158.5 -608.5t-517.5 -188.5q-353 0 -515.5 192.5t-162.5 604.5zM451 768q0 -147 16 -240.5t55.5 -149t97 -76.5t148.5 -21q120 0 185.5 41.5t96.5 146.5t31 299q0 148 -15.5 240t-54 147 t-96 75.5t-149.5 20.5q-73 0 -123 -13t-88.5 -44.5t-60 -87.5t-32.5 -138t-11 -200zM606 1622l133 248h406l-285 -248h-254z" />
<glyph unicode="&#xd4;" horiz-adv-x="1531" d="M88 768q0 413 160.5 603t517.5 190q358 0 517 -189.5t159 -603.5q0 -420 -158.5 -608.5t-517.5 -188.5q-353 0 -515.5 192.5t-162.5 604.5zM385 1622l211 248h338l219 -248h-279l-108 117l-107 -117h-274zM451 768q0 -147 16 -240.5t55.5 -149t97 -76.5t148.5 -21 q120 0 185.5 41.5t96.5 146.5t31 299q0 148 -15.5 240t-54 147t-96 75.5t-149.5 20.5q-73 0 -123 -13t-88.5 -44.5t-60 -87.5t-32.5 -138t-11 -200z" />
<glyph unicode="&#xd5;" horiz-adv-x="1531" d="M88 768q0 413 160.5 603t517.5 190q358 0 517 -189.5t159 -603.5q0 -420 -158.5 -608.5t-517.5 -188.5q-353 0 -515.5 192.5t-162.5 604.5zM418 1630q5 111 61.5 178.5t151.5 67.5q59 0 116.5 -21t102.5 -42t72 -21q28 0 42.5 14t20.5 47l139 -2q-4 -112 -62.5 -178.5 t-152.5 -66.5q-58 0 -113 21t-97.5 42t-69.5 21q-25 0 -43.5 -17t-22.5 -45zM451 768q0 -147 16 -240.5t55.5 -149t97 -76.5t148.5 -21q120 0 185.5 41.5t96.5 146.5t31 299q0 148 -15.5 240t-54 147t-96 75.5t-149.5 20.5q-73 0 -123 -13t-88.5 -44.5t-60 -87.5t-32.5 -138 t-11 -200z" />
<glyph unicode="&#xd6;" horiz-adv-x="1531" d="M88 768q0 413 160.5 603t517.5 190q358 0 517 -189.5t159 -603.5q0 -420 -158.5 -608.5t-517.5 -188.5q-353 0 -515.5 192.5t-162.5 604.5zM432 1747q0 129 135 129q131 0 131 -129q0 -125 -131 -125q-69 0 -102 29.5t-33 95.5zM451 768q0 -147 16 -240.5t55.5 -149 t97 -76.5t148.5 -21q120 0 185.5 41.5t96.5 146.5t31 299q0 148 -15.5 240t-54 147t-96 75.5t-149.5 20.5q-73 0 -123 -13t-88.5 -44.5t-60 -87.5t-32.5 -138t-11 -200zM840 1747q0 129 133 129t133 -129q0 -125 -133 -125q-69 0 -101 29.5t-32 95.5z" />
<glyph unicode="&#xd7;" horiz-adv-x="1232" d="M156 942l184 199l278 -275l277 273l182 -195l-278 -274l274 -267l-184 -196l-273 268l-272 -268l-184 194l274 269z" />
<glyph unicode="&#xd8;" horiz-adv-x="1531" d="M68 113l116 145q-96 185 -96 510q0 413 160 603t518 190q288 0 446 -125l109 129l160 -154l-127 -154q88 -183 88 -489q0 -419 -159 -608t-517 -189q-281 0 -436 117l-99 -123zM451 768q0 -121 10 -223l540 622q-36 46 -92.5 65t-144.5 19q-90 0 -147 -20.5t-95.5 -75.5 t-54.5 -147.5t-16 -239.5zM537 356q67 -75 229 -75q121 0 186.5 41.5t96 146t30.5 299.5q0 32 -6 203z" />
<glyph unicode="&#xd9;" horiz-adv-x="1486" d="M125 549v987h344v-983q0 -140 66 -204t210 -64q145 0 210 63.5t65 204.5v983h342v-987q0 -578 -617 -578q-306 0 -463 144.5t-157 433.5zM389 1872h377l143 -246h-258z" />
<glyph unicode="&#xda;" horiz-adv-x="1486" d="M125 549v987h344v-983q0 -140 66 -204t210 -64q145 0 210 63.5t65 204.5v983h342v-987q0 -578 -617 -578q-306 0 -463 144.5t-157 433.5zM586 1622l133 248h405l-284 -248h-254z" />
<glyph unicode="&#xdb;" horiz-adv-x="1486" d="M125 549v987h344v-983q0 -140 66 -204t210 -64q145 0 210 63.5t65 204.5v983h342v-987q0 -578 -617 -578q-306 0 -463 144.5t-157 433.5zM362 1622l211 248h338l219 -248h-278l-109 117l-106 -117h-275z" />
<glyph unicode="&#xdc;" horiz-adv-x="1486" d="M125 549v987h344v-983q0 -140 66 -204t210 -64q145 0 210 63.5t65 204.5v983h342v-987q0 -578 -617 -578q-306 0 -463 144.5t-157 433.5zM410 1747q0 129 135 129q131 0 131 -129q0 -125 -131 -125q-69 0 -102 29.5t-33 95.5zM817 1747q0 129 133 129t133 -129 q0 -125 -133 -125q-69 0 -101 29.5t-32 95.5z" />
<glyph unicode="&#xdd;" horiz-adv-x="1429" d="M12 1536h389l258 -582l64 -151h6l62 153l247 580h379l-522 -1047v-489h-352v489zM561 1622l133 248h406l-285 -248h-254z" />
<glyph unicode="&#xde;" horiz-adv-x="1361" d="M145 0v1536h347v-236h182q330 0 476 -127t146 -399q0 -125 -34 -217.5t-107.5 -159t-193.5 -100t-287 -33.5h-182v-264h-347zM492 541h182q149 0 207.5 47.5t58.5 187.5q0 135 -58 185.5t-208 50.5h-182v-471z" />
<glyph unicode="&#xdf;" horiz-adv-x="1345" d="M137 0v1001q0 278 133 420t394 142q196 0 318 -101t122 -250q0 -48 -19.5 -93.5t-47 -78t-55.5 -60.5t-47.5 -53t-19.5 -44q0 -16 20.5 -34t53 -37.5t72 -43.5t79.5 -58t72.5 -74t53 -98t20.5 -124q0 -198 -132.5 -315t-352.5 -117q-187 0 -289 65l18 268q36 -23 95 -38 t120 -15q98 0 158 35.5t60 108.5q0 44 -29 84.5t-72 69t-94 61t-94 62t-72 71.5t-29 88q0 41 23.5 82.5t56.5 75.5t66 67t56.5 68.5t23.5 66.5q0 43 -38.5 69.5t-105.5 26.5q-104 0 -152 -62.5t-48 -205.5v-1030h-318z" />
<glyph unicode="&#xe0;" horiz-adv-x="1189" d="M80 391q0 175 117 281t325 106q122 0 238 -35v72q0 95 -55 138.5t-181 43.5q-100 0 -176.5 -15.5t-165.5 -51.5l-26 254q193 82 426 82q137 0 231.5 -29.5t152.5 -92.5t83.5 -154t25.5 -222v-768h-244l-24 119l-6 2q-57 -68 -144 -104.5t-192 -36.5q-182 0 -283.5 103.5 t-101.5 307.5zM256 1640h362l123 -297h-239zM377 395q0 -164 176 -164q83 0 145 43.5t62 102.5v155q-70 27 -176 27q-207 0 -207 -164z" />
<glyph unicode="&#xe1;" horiz-adv-x="1189" d="M80 391q0 175 117 281t325 106q122 0 238 -35v72q0 95 -55 138.5t-181 43.5q-100 0 -176.5 -15.5t-165.5 -51.5l-26 254q193 82 426 82q137 0 231.5 -29.5t152.5 -92.5t83.5 -154t25.5 -222v-768h-244l-24 119l-6 2q-57 -68 -144 -104.5t-192 -36.5q-182 0 -283.5 103.5 t-101.5 307.5zM377 395q0 -164 176 -164q83 0 145 43.5t62 102.5v155q-70 27 -176 27q-207 0 -207 -164zM422 1343l121 297h364l-245 -297h-240z" />
<glyph unicode="&#xe2;" horiz-adv-x="1189" d="M80 391q0 175 117 281t325 106q122 0 238 -35v72q0 95 -55 138.5t-181 43.5q-100 0 -176.5 -15.5t-165.5 -51.5l-26 254q193 82 426 82q137 0 231.5 -29.5t152.5 -92.5t83.5 -154t25.5 -222v-768h-244l-24 119l-6 2q-57 -68 -144 -104.5t-192 -36.5q-182 0 -283.5 103.5 t-101.5 307.5zM248 1343l201 297h276l205 -297h-236l-106 168l-105 -168h-235zM377 395q0 -164 176 -164q83 0 145 43.5t62 102.5v155q-70 27 -176 27q-207 0 -207 -164z" />
<glyph unicode="&#xe3;" horiz-adv-x="1189" d="M80 391q0 175 117 281t325 106q122 0 238 -35v72q0 95 -55 138.5t-181 43.5q-100 0 -176.5 -15.5t-165.5 -51.5l-26 254q193 82 426 82q137 0 231.5 -29.5t152.5 -92.5t83.5 -154t25.5 -222v-768h-244l-24 119l-6 2q-57 -68 -144 -104.5t-192 -36.5q-182 0 -283.5 103.5 t-101.5 307.5zM246 1370q5 121 62 198t149 77q47 0 89 -16.5t68 -37t57.5 -37t59.5 -16.5q52 0 72 84l145 -2q-5 -123 -63 -197.5t-150 -74.5q-46 0 -88 16.5t-68 36.5t-57.5 36.5t-58.5 16.5q-26 0 -45 -24t-27 -62zM377 395q0 -164 176 -164q83 0 145 43.5t62 102.5v155 q-70 27 -176 27q-207 0 -207 -164z" />
<glyph unicode="&#xe4;" horiz-adv-x="1189" d="M80 391q0 175 117 281t325 106q122 0 238 -35v72q0 95 -55 138.5t-181 43.5q-100 0 -176.5 -15.5t-165.5 -51.5l-26 254q193 82 426 82q137 0 231.5 -29.5t152.5 -92.5t83.5 -154t25.5 -222v-768h-244l-24 119l-6 2q-57 -68 -144 -104.5t-192 -36.5q-182 0 -283.5 103.5 t-101.5 307.5zM276 1511q0 136 134 136q135 0 135 -136q0 -133 -135 -133q-69 0 -101.5 31t-32.5 102zM377 395q0 -164 176 -164q83 0 145 43.5t62 102.5v155q-70 27 -176 27q-207 0 -207 -164zM649 1511q0 136 135 136q134 0 134 -136q0 -67 -32 -100t-102 -33 q-69 0 -102 31t-33 102z" />
<glyph unicode="&#xe5;" horiz-adv-x="1189" d="M80 391q0 175 117 281t325 106q122 0 238 -35v72q0 95 -55 138.5t-181 43.5q-100 0 -176.5 -15.5t-165.5 -51.5l-26 254q193 82 426 82q137 0 231.5 -29.5t152.5 -92.5t83.5 -154t25.5 -222v-768h-244l-24 119l-6 2q-57 -68 -144 -104.5t-192 -36.5q-182 0 -283.5 103.5 t-101.5 307.5zM336 1522q0 184 256 184q129 0 193.5 -49.5t64.5 -134.5q0 -95 -62 -140t-196 -45q-131 0 -193.5 43.5t-62.5 141.5zM377 395q0 -164 176 -164q83 0 145 43.5t62 102.5v155q-70 27 -176 27q-207 0 -207 -164zM489 1520q0 -32 23.5 -48t83.5 -16q104 0 104 64 q0 63 -104 63q-59 0 -83 -16t-24 -47z" />
<glyph unicode="&#xe6;" horiz-adv-x="1861" d="M80 389q0 175 116.5 280t325.5 105q113 0 238 -33v72q0 95 -55 138.5t-181 43.5q-100 0 -176.5 -15.5t-165.5 -51.5l-26 254q199 80 426 80q263 0 362 -132q137 134 356 134q226 0 359 -146t133 -432q0 -63 -8 -149h-723q12 -153 90.5 -219t239.5 -66q166 0 331 65 l35 -260q-177 -80 -405 -80q-318 0 -461 181q-65 -87 -166.5 -134t-228.5 -47q-202 0 -309 103t-107 309zM377 393q0 -164 176 -164q89 0 148 45.5t59 118.5v137q-70 27 -176 27q-207 0 -207 -164zM1055 748h446q-6 251 -219 251q-113 0 -164.5 -57.5t-62.5 -193.5z" />
<glyph unicode="&#xe7;" horiz-adv-x="1009" d="M72 618q0 316 138 480t429 164q163 0 299 -54l-18 -270q-107 39 -211 39q-172 0 -240 -80.5t-68 -278.5q0 -194 76 -282t225 -88q126 0 226 47l22 -248q-83 -53 -223 -65l-65 -369h-283l131 373q-438 66 -438 632z" />
<glyph unicode="&#xe8;" horiz-adv-x="1200" d="M72 637q0 303 136 465t410 162q244 0 378 -145t134 -433q0 -92 -8 -149h-723q12 -153 90 -219t240 -66q174 0 332 61l35 -256q-177 -80 -406 -80q-317 0 -467.5 165t-150.5 495zM287 1640h362l123 -297h-240zM393 748h447q-3 132 -59 191.5t-160 59.5q-115 0 -166 -57.5 t-62 -193.5z" />
<glyph unicode="&#xe9;" horiz-adv-x="1200" d="M72 637q0 303 136 465t410 162q244 0 378 -145t134 -433q0 -92 -8 -149h-723q12 -153 90 -219t240 -66q174 0 332 61l35 -256q-177 -80 -406 -80q-317 0 -467.5 165t-150.5 495zM393 748h447q-3 132 -59 191.5t-160 59.5q-115 0 -166 -57.5t-62 -193.5zM453 1343l120 297 h365l-246 -297h-239z" />
<glyph unicode="&#xea;" horiz-adv-x="1200" d="M72 637q0 303 136 465t410 162q244 0 378 -145t134 -433q0 -92 -8 -149h-723q12 -153 90 -219t240 -66q174 0 332 61l35 -256q-177 -80 -406 -80q-317 0 -467.5 165t-150.5 495zM279 1343l200 297h277l205 -297h-236l-107 168l-104 -168h-235zM393 748h447 q-3 132 -59 191.5t-160 59.5q-115 0 -166 -57.5t-62 -193.5z" />
<glyph unicode="&#xeb;" horiz-adv-x="1200" d="M72 637q0 303 136 465t410 162q244 0 378 -145t134 -433q0 -92 -8 -149h-723q12 -153 90 -219t240 -66q174 0 332 61l35 -256q-177 -80 -406 -80q-317 0 -467.5 165t-150.5 495zM281 1511q0 136 133 136q135 0 135 -136q0 -133 -135 -133q-69 0 -101 31t-32 102zM393 748 h447q-3 132 -59 191.5t-160 59.5q-115 0 -166 -57.5t-62 -193.5zM653 1511q0 136 135 136q134 0 134 -136q0 -67 -32 -100t-102 -33q-69 0 -102 31t-33 102z" />
<glyph unicode="&#xec;" horiz-adv-x="653" d="M0 1640h362l123 -297h-239zM164 0v1233l325 14v-1247h-325z" />
<glyph unicode="&#xed;" horiz-adv-x="653" d="M164 0v1233l325 14v-1247h-325zM166 1343l121 297h364l-245 -297h-240z" />
<glyph unicode="&#xee;" horiz-adv-x="653" d="M-8 1343l201 297h276l205 -297h-236l-106 168l-105 -168h-235zM164 0v1233l325 14v-1247h-325z" />
<glyph unicode="&#xef;" horiz-adv-x="653" d="M16 1511q0 136 134 136q135 0 135 -136q0 -133 -135 -133q-69 0 -101.5 31t-32.5 102zM164 0v1233l325 14v-1247h-325zM389 1511q0 136 135 136q133 0 133 -136q0 -67 -32 -100t-101 -33t-102 31t-33 102z" />
<glyph unicode="&#xf0;" horiz-adv-x="1280" d="M72 578q0 270 122.5 407t362.5 137q148 0 254 -53l4 4q-77 116 -174 203l-182 -111l-111 123l154 96q-73 47 -176 105l221 145q99 -52 176 -110l174 108l107 -137l-144 -88q156 -153 252 -342.5t96 -378.5q0 -375 -139.5 -542t-425.5 -167q-106 0 -190 17.5t-156.5 60.5 t-121 110.5t-76 171.5t-27.5 241zM401 565q0 -97 14.5 -161t45.5 -99t71.5 -49t100.5 -14q127 0 186.5 87t59.5 285q0 128 -60.5 185t-183.5 57q-129 0 -181.5 -64.5t-52.5 -226.5z" />
<glyph unicode="&#xf1;" horiz-adv-x="1288" d="M127 0v1235l229 14l47 -106q141 123 342 123q200 0 314.5 -123.5t114.5 -351.5v-791h-318v791q0 101 -50 146.5t-151 45.5q-61 0 -119 -25.5t-90 -68.5v-889h-319zM313 1370q5 121 62 198t149 77q47 0 89.5 -16.5t68 -37t57.5 -37t60 -16.5q51 0 71 84l146 -2 q-5 -123 -63 -197.5t-150 -74.5q-46 0 -88 16.5t-68.5 36.5t-58 36.5t-58.5 16.5q-26 0 -44.5 -24t-26.5 -62z" />
<glyph unicode="&#xf2;" horiz-adv-x="1277" d="M72 616q0 340 136.5 494t432.5 154q297 0 432 -153.5t135 -494.5t-134.5 -493t-432.5 -152q-297 0 -433 152t-136 493zM309 1640h363l123 -297h-240zM401 616q0 -153 24.5 -236.5t75 -116t140.5 -32.5t140 33t74 116.5t24 235.5t-24 235.5t-74 116.5t-140 33 q-91 0 -141.5 -33.5t-74.5 -116.5t-24 -235z" />
<glyph unicode="&#xf3;" horiz-adv-x="1277" d="M72 616q0 340 136.5 494t432.5 154q297 0 432 -153.5t135 -494.5t-134.5 -493t-432.5 -152q-297 0 -433 152t-136 493zM401 616q0 -153 24.5 -236.5t75 -116t140.5 -32.5t140 33t74 116.5t24 235.5t-24 235.5t-74 116.5t-140 33q-91 0 -141.5 -33.5t-74.5 -116.5 t-24 -235zM475 1343l121 297h365l-246 -297h-240z" />
<glyph unicode="&#xf4;" horiz-adv-x="1277" d="M72 616q0 340 136.5 494t432.5 154q297 0 432 -153.5t135 -494.5t-134.5 -493t-432.5 -152q-297 0 -433 152t-136 493zM299 1343l201 297h276l205 -297h-236l-106 168l-104 -168h-236zM401 616q0 -153 24.5 -236.5t75 -116t140.5 -32.5t140 33t74 116.5t24 235.5 t-24 235.5t-74 116.5t-140 33q-91 0 -141.5 -33.5t-74.5 -116.5t-24 -235z" />
<glyph unicode="&#xf5;" horiz-adv-x="1277" d="M72 616q0 340 136.5 494t432.5 154q297 0 432 -153.5t135 -494.5t-134.5 -493t-432.5 -152q-297 0 -433 152t-136 493zM297 1370q5 121 62 198t149 77q47 0 89 -16.5t68 -37t57.5 -37t59.5 -16.5q52 0 72 84l145 -2q-5 -123 -63 -197.5t-150 -74.5q-46 0 -88 16.5 t-68 36.5t-57.5 36.5t-58.5 16.5q-26 0 -45 -24t-27 -62zM401 616q0 -153 24.5 -236.5t75 -116t140.5 -32.5t140 33t74 116.5t24 235.5t-24 235.5t-74 116.5t-140 33q-91 0 -141.5 -33.5t-74.5 -116.5t-24 -235z" />
<glyph unicode="&#xf6;" horiz-adv-x="1277" d="M72 616q0 340 136.5 494t432.5 154q297 0 432 -153.5t135 -494.5t-134.5 -493t-432.5 -152q-297 0 -433 152t-136 493zM319 1511q0 136 134 136q135 0 135 -136q0 -133 -135 -133q-69 0 -101.5 31t-32.5 102zM401 616q0 -153 24.5 -236.5t75 -116t140.5 -32.5t140 33 t74 116.5t24 235.5t-24 235.5t-74 116.5t-140 33q-91 0 -141.5 -33.5t-74.5 -116.5t-24 -235zM692 1511q0 136 135 136q134 0 134 -136q0 -67 -32 -100t-102 -33q-69 0 -102 31t-33 102z" />
<glyph unicode="&#xf7;" horiz-adv-x="1232" d="M119 541v293h995v-293h-995zM420 297q0 78 50 118t146 40q197 0 197 -158q0 -154 -197 -154q-100 0 -148 34t-48 120zM420 1077q0 78 50 118t146 40q197 0 197 -158q0 -155 -197 -155q-100 0 -148 34.5t-48 120.5z" />
<glyph unicode="&#xf8;" horiz-adv-x="1277" d="M63 94l89 109q-80 145 -80 413q0 340 136.5 494t432.5 154q218 0 346 -82l76 92l133 -121l-82 -102q92 -149 92 -435q0 -342 -134 -493.5t-431 -151.5q-238 0 -369 92l-75 -92zM399 616q0 -26 1 -68t1 -59l414 447q-54 65 -174 65q-91 0 -142 -33t-75.5 -116.5 t-24.5 -235.5zM451 315q28 -46 74 -65t116 -19q90 0 140 33t74 116.5t24 235.5q0 32 -2.5 86t-2.5 74z" />
<glyph unicode="&#xf9;" horiz-adv-x="1273" d="M117 438v803h317v-797q0 -186 205 -186q104 0 154.5 45.5t50.5 140.5v797h317v-803q0 -461 -522 -461q-261 0 -391.5 118.5t-130.5 342.5zM309 1640h363l123 -297h-240z" />
<glyph unicode="&#xfa;" horiz-adv-x="1273" d="M117 438v803h317v-797q0 -186 205 -186q104 0 154.5 45.5t50.5 140.5v797h317v-803q0 -461 -522 -461q-261 0 -391.5 118.5t-130.5 342.5zM473 1343l121 297h364l-245 -297h-240z" />
<glyph unicode="&#xfb;" horiz-adv-x="1273" d="M117 438v803h317v-797q0 -186 205 -186q104 0 154.5 45.5t50.5 140.5v797h317v-803q0 -461 -522 -461q-261 0 -391.5 118.5t-130.5 342.5zM299 1343l201 297h276l205 -297h-236l-106 168l-104 -168h-236z" />
<glyph unicode="&#xfc;" horiz-adv-x="1273" d="M117 438v803h317v-797q0 -186 205 -186q104 0 154.5 45.5t50.5 140.5v797h317v-803q0 -461 -522 -461q-261 0 -391.5 118.5t-130.5 342.5zM317 1511q0 136 134 136q135 0 135 -136q0 -133 -135 -133q-69 0 -101.5 31t-32.5 102zM690 1511q0 136 135 136q133 0 133 -136 q0 -67 -32 -100t-101 -33t-102 31t-33 102z" />
<glyph unicode="&#xfd;" horiz-adv-x="1337" d="M33 1241h362l271 -758l53 -155h6l39 159l203 754h338l-424 -1225q-65 -187 -177.5 -273.5t-275.5 -86.5q-123 0 -211 39l25 225q65 -26 129 -26q70 0 115.5 25.5t74.5 92.5l6 17zM510 1343l121 297h364l-245 -297h-240z" />
<glyph unicode="&#xfe;" horiz-adv-x="1300" d="M137 -315v1908l320 17v-297l-4 -164l6 -4q132 119 317 119q109 0 190.5 -34t141.5 -108t90.5 -199t30.5 -300q0 -319 -126.5 -481t-352.5 -162q-181 0 -291 94l-6 -2l4 -166v-221h-320zM457 348q70 -106 207 -106q45 0 78.5 9.5t64 35t49.5 67.5t30 110t11 161 q0 107 -12.5 176t-41 109t-69 55.5t-102.5 15.5q-144 0 -215 -100v-533z" />
<glyph unicode="&#xff;" horiz-adv-x="1337" d="M33 1241h362l271 -758l53 -155h6l39 159l203 754h338l-424 -1225q-65 -187 -177.5 -273.5t-275.5 -86.5q-123 0 -211 39l25 225q65 -26 129 -26q70 0 115.5 25.5t74.5 92.5l6 17zM350 1511q0 136 133 136q135 0 135 -136q0 -133 -135 -133q-69 0 -101 31t-32 102z M723 1511q0 136 135 136q133 0 133 -136q0 -67 -32 -100t-101 -33t-102 31t-33 102z" />
<glyph unicode="&#x152;" horiz-adv-x="2191" d="M88 768q0 408 151 600.5t466 192.5q256 0 397 -138l4 2v111h979l6 -305h-674v-305h565v-275h-565v-350h705l-6 -301h-1010v121l-4 2q-134 -152 -402 -152q-308 0 -460 195t-152 602zM451 768q0 -147 16 -240.5t55.5 -149t97 -76.5t148.5 -21q120 0 184.5 41.5t94.5 146 t30 299.5q0 197 -29.5 300t-94.5 143t-187 40q-73 0 -123 -13t-88.5 -44.5t-60 -87.5t-32.5 -138t-11 -200z" />
<glyph unicode="&#x153;" horiz-adv-x="2011" d="M78 616q0 338 133.5 493t411.5 155q301 0 426 -166q122 166 391 166q236 0 369 -145.5t133 -432.5q0 -52 -9 -149h-721q10 -153 88.5 -219t239.5 -66q167 0 332 65l35 -260q-177 -80 -396 -80q-165 0 -275.5 43t-178.5 132q-62 -92 -167.5 -136.5t-266.5 -44.5 q-281 0 -413 153t-132 492zM406 616q0 -152 25 -236t75.5 -116.5t140.5 -32.5t139.5 33.5t73 116.5t23.5 235t-23.5 235t-73 116.5t-139.5 33.5q-91 0 -141.5 -33t-75 -116.5t-24.5 -235.5zM1206 748h445q-6 251 -219 251q-114 0 -165.5 -58t-60.5 -193z" />
<glyph unicode="&#x178;" horiz-adv-x="1429" d="M12 1536h389l258 -582l64 -151h6l62 153l247 580h379l-522 -1047v-489h-352v489zM385 1747q0 129 135 129q131 0 131 -129q0 -125 -131 -125q-69 0 -102 29.5t-33 95.5zM793 1747q0 129 133 129t133 -129q0 -125 -133 -125q-69 0 -101 29.5t-32 95.5z" />
<glyph unicode="&#x2c6;" horiz-adv-x="829" d="M76 1343l200 297h277l205 -297h-236l-106 168l-105 -168h-235z" />
<glyph unicode="&#x2dc;" horiz-adv-x="829" d="M78 1370q5 121 62 198t149 77q47 0 89 -16.5t68 -37t57.5 -37t59.5 -16.5q52 0 72 84l145 -2q-5 -123 -63 -197.5t-150 -74.5q-46 0 -88 16.5t-68 36.5t-57.5 36.5t-58.5 16.5q-26 0 -45 -24t-27 -62z" />
<glyph unicode="&#x2000;" horiz-adv-x="938" />
<glyph unicode="&#x2001;" horiz-adv-x="1876" />
<glyph unicode="&#x2002;" horiz-adv-x="938" />
<glyph unicode="&#x2003;" horiz-adv-x="1876" />
<glyph unicode="&#x2004;" horiz-adv-x="625" />
<glyph unicode="&#x2005;" horiz-adv-x="469" />
<glyph unicode="&#x2006;" horiz-adv-x="312" />
<glyph unicode="&#x2007;" horiz-adv-x="312" />
<glyph unicode="&#x2008;" horiz-adv-x="234" />
<glyph unicode="&#x2009;" horiz-adv-x="375" />
<glyph unicode="&#x200a;" horiz-adv-x="104" />
<glyph unicode="&#x2010;" horiz-adv-x="798" d="M106 586v229h586v-229h-586z" />
<glyph unicode="&#x2011;" horiz-adv-x="798" d="M106 586v229h586v-229h-586z" />
<glyph unicode="&#x2012;" horiz-adv-x="798" d="M106 586v229h586v-229h-586z" />
<glyph unicode="&#x2013;" horiz-adv-x="1056" d="M106 586v229h844v-229h-844z" />
<glyph unicode="&#x2014;" horiz-adv-x="1427" d="M106 586v229h1217v-229h-1217z" />
<glyph unicode="&#x2018;" horiz-adv-x="520" d="M82 1253q0 80 57.5 209.5t126.5 218.5l115 -28l-51 -246q44 -22 76 -66t32 -96q0 -85 -42.5 -134.5t-131.5 -49.5q-92 0 -137 50.5t-45 141.5z" />
<glyph unicode="&#x2019;" horiz-adv-x="520" d="M80 1419q0 83 42.5 133t133.5 50t136.5 -50.5t45.5 -142.5q0 -78 -58 -207.5t-128 -220.5l-115 29l53 247q-45 20 -77.5 64t-32.5 98z" />
<glyph unicode="&#x201a;" horiz-adv-x="520" d="M80 141q0 83 42.5 133t133.5 50t136.5 -50.5t45.5 -142.5q0 -78 -58 -207.5t-128 -220.5l-115 29l53 248q-45 21 -77.5 64t-32.5 97z" />
<glyph unicode="&#x201c;" horiz-adv-x="964" d="M82 1253q0 80 57.5 209.5t126.5 218.5l115 -28l-51 -246q44 -22 76 -66t32 -96q0 -85 -42.5 -134.5t-131.5 -49.5q-92 0 -137 50.5t-45 141.5zM526 1255q0 78 58.5 207t128.5 219l114 -26l-53 -248q45 -20 78 -65t33 -97q0 -83 -42.5 -132.5t-133.5 -49.5 q-183 0 -183 192z" />
<glyph unicode="&#x201d;" horiz-adv-x="964" d="M80 1415q0 83 42.5 132.5t133.5 49.5q92 0 137 -50t45 -142q0 -78 -58 -207.5t-128 -220.5l-115 29l53 247q-45 20 -77.5 64t-32.5 98zM526 1415q0 83 42.5 132.5t133.5 49.5q92 0 137.5 -50t45.5 -142q0 -78 -58.5 -207t-128.5 -221l-114 29l53 247q-45 21 -78 64.5 t-33 97.5z" />
<glyph unicode="&#x201e;" horiz-adv-x="964" d="M80 141q0 83 42.5 133t133.5 50t136.5 -50.5t45.5 -142.5q0 -78 -58 -207.5t-128 -220.5l-115 29l53 248q-45 21 -77.5 64t-32.5 97zM526 141q0 83 42.5 133t133.5 50q92 0 137.5 -50.5t45.5 -142.5q0 -78 -58.5 -207t-128.5 -221l-114 29l53 248q-45 21 -78 64.5 t-33 96.5z" />
<glyph unicode="&#x2022;" horiz-adv-x="847" d="M98 659q0 328 320 328q325 0 325 -328q0 -167 -81 -248t-244 -81q-162 0 -241 81t-79 248z" />
<glyph unicode="&#x2026;" horiz-adv-x="1513" d="M92 154q0 176 184 176q183 0 183 -176q0 -179 -183 -179q-97 0 -140.5 41.5t-43.5 137.5zM580 154q0 176 184 176q182 0 182 -176q0 -179 -182 -179q-97 0 -140.5 41.5t-43.5 137.5zM1053 154q0 176 184 176q182 0 182 -176q0 -179 -182 -179q-97 0 -140.5 41.5 t-43.5 137.5z" />
<glyph unicode="&#x202f;" horiz-adv-x="375" />
<glyph unicode="&#x2039;" horiz-adv-x="806" d="M63 645v23l642 442v-246l-328 -209l328 -206v-246z" />
<glyph unicode="&#x203a;" horiz-adv-x="806" d="M104 203v246l326 206l-326 209v246l639 -442v-23z" />
<glyph unicode="&#x205f;" horiz-adv-x="469" />
<glyph unicode="&#x20ac;" d="M66 545v166h155q-2 23 -2 69v23h-153v174h170q45 264 214.5 415.5t438.5 151.5q218 0 362 -61l-65 -275q-104 37 -221 37q-155 0 -247.5 -66t-127.5 -202h520l-41 -172h-502v-94h469l-39 -166h-411q33 -154 125.5 -222.5t249.5 -68.5q136 0 276 65l25 -253 q-162 -86 -392 -86q-277 0 -434 140t-200 425h-170z" />
<glyph unicode="&#x2122;" horiz-adv-x="1417" d="M41 1389v165h508v-165h-158v-424h-192v424h-158zM612 965v589h238l80 -217l53 -155h6l51 155l80 217h230v-589h-166v209l4 165l-6 2l-54 -157l-79 -219h-136l-82 215l-55 157l-4 -2l2 -166v-204h-162z" />
<glyph unicode="&#x25fc;" horiz-adv-x="1239" d="M0 0v1239h1239v-1239h-1239z" />
<glyph unicode="&#xfb01;" horiz-adv-x="1456" d="M45 1006v235h156v53q0 149 107 244.5t319 95.5q108 0 180 -20l-8 -209q-52 10 -105 10q-176 0 -176 -129v-45h770v-1241h-323v1006h-447v-1006h-317v1006h-156zM948 1511q0 138 180 138q183 0 183 -138q0 -70 -44.5 -103.5t-138.5 -33.5t-137 31.5t-43 105.5z" />
<glyph unicode="&#xfb02;" horiz-adv-x="1388" d="M45 1006v235h156v47q0 59 16.5 109.5t56 96t101 77.5t156.5 50.5t217 18.5q99 0 255 -17.5t234 -20.5v-1602h-322v1411q-103 14 -170 14q-126 0 -176.5 -37t-50.5 -112v-35h201v-235h-201v-1006h-317v1006h-156z" />
</font>
</defs>
</svg>
